<svg xmlns="http://www.w3.org/2000/svg" xmlns:xlink="http://www.w3.org/1999/xlink" width="1777" height="316" viewBox="0 0 1777 316">
  <defs>
    <filter id="Rectangle_488" x="0" y="0" width="1777" height="316" filterUnits="userSpaceOnUse">
      <feOffset dx="3" dy="3" input="SourceAlpha"/>
      <feGaussianBlur stdDeviation="3" result="blur"/>
      <feFlood/>
      <feComposite operator="in" in2="blur"/>
      <feComposite in="SourceGraphic"/>
    </filter>
  </defs>
  <g id="Group_411" data-name="Group 411" transform="translate(-18615 -3546)">
    <g transform="matrix(1, 0, 0, 1, 18615, 3546)" filter="url(#Rectangle_488)">
      <g id="Rectangle_488-2" data-name="Rectangle 488" transform="translate(6 6)" fill="#fff" stroke="#707070" stroke-width="1">
        <rect width="1759" height="298" rx="10" stroke="none"/>
        <rect x="0.5" y="0.5" width="1758" height="297" rx="9.5" fill="none"/>
      </g>
    </g>
    <text id="Notifications" transform="translate(19030 3658)" fill="#1c1c1c" font-size="70" font-family="Montserrat-SemiBold, Montserrat" font-weight="600"><tspan x="0" y="68">Notifications</tspan></text>
    <g id="notify" transform="translate(19365.158 3594.196)">
      <path id="Path_727" data-name="Path 727" d="M912.406,663.771,903,635.385s10.346,10.346,10.346,18.836l-1.857-19.631a29.959,29.959,0,0,1,4.775,18.04C915.734,663.506,912.406,663.771,912.406,663.771Z" transform="translate(-510.961 -450.843)" fill="#e6e6e6"/>
      <path id="Path_728" data-name="Path 728" d="M428.18,602.752l-9.18-27.7s10.1,10.1,10.1,18.383l-1.812-19.16a29.24,29.24,0,0,1,4.66,17.606C431.428,602.493,428.18,602.752,428.18,602.752Z" transform="translate(-228.733 -415.671)" fill="#e6e6e6"/>
      <path id="Path_729" data-name="Path 729" d="M560.587,642.316c.016,18.224-36.129,12.618-80.379,12.657s-79.849,5.706-79.864-12.518S436.46,620.236,480.71,620.2,560.571,624.092,560.587,642.316Z" transform="translate(-217.855 -442.451)" fill="#e6e6e6"/>
      <path id="Path_730" data-name="Path 730" d="M493.393,389.111h-5.785L484.855,366.8h8.538Z" transform="translate(-181.673 -213.857)" fill="#a0616a"/>
      <path id="Path_731" data-name="Path 731" d="M471.079,416.357h11.8v7.025H464.7v-.643a6.382,6.382,0,0,1,6.382-6.382Z" transform="translate(-169.918 -242.756)" fill="#2f2e41"/>
      <path id="Path_732" data-name="Path 732" d="M595.393,468.111h-5.785L586.855,445.8h8.538Z" transform="translate(-241.15 -259.923)" fill="#a0616a"/>
      <path id="Path_733" data-name="Path 733" d="M573.079,495.357h11.8v7.025H566.7v-.643a6.382,6.382,0,0,1,6.382-6.382Z" transform="translate(-229.396 -288.822)" fill="#2f2e41"/>
      <path id="Path_734" data-name="Path 734" d="M843.846,448.578a4.3,4.3,0,0,0-1.207-6.483L829.2,387.361l-8.591,3.7,15.981,52.923a4.324,4.324,0,0,0,7.253,4.6Z" transform="translate(-462.919 -306.681)" fill="#a0616a"/>
      <path id="Path_735" data-name="Path 735" d="M811.964,266.811a4.745,4.745,0,0,0-7.26.48l-20.8,2.388,3.164,8.021,18.913-3.54a4.771,4.771,0,0,0,5.98-7.35Z" transform="translate(-441.516 -235.532)" fill="#a0616a"/>
      <path id="Path_736" data-name="Path 736" d="M769,511.842l9.075,68.108,11.295-2.325s-1.661-49.6,3.986-55.581-7.264-16.455-7.264-16.455Z" transform="translate(-432.823 -375.621)" fill="#2f2e41"/>
      <path id="Path_737" data-name="Path 737" d="M723.718,465.915l-4.169,6.253s-32.1-13.34-32.1,7.921-1.837,35.689-2.5,36.686,7.686,3.583,11.673,2.918c0,0,4.918-34.276,4.586-36.269,0,0,31.489,15.439,37.468,14.11s7.392-6.033,8.389-8.69-.417-23.762-.417-23.762L726.715,459Z" transform="translate(-383.789 -348.454)" fill="#2f2e41"/>
      <path id="Path_738" data-name="Path 738" d="M764.682,317.923l-1.188-1.426s-13.308-29.944-8.08-38.024,28.043-9.268,28.756-8.793-1.7,6.646-.039,9.5c0,0-17.673,3.832-18.862,4.307s9.157,18.04,9.157,18.04l-1.188,10.694Z" transform="translate(-424.192 -238.006)" fill="#ccc"/>
      <path id="Path_739" data-name="Path 739" d="M795.1,347.858s-12.358,1.426-12.833,1.426-.713-3.089-.713-3.089l-10.932,14.972s-5.386,43.436-3.96,42.723,27.725,3.382,27.963,1.48-.238-11.407.475-11.883,12.358-29.944,12.358-29.944-1.188-6.179-5.228-8.318S795.1,347.858,795.1,347.858Z" transform="translate(-431.321 -282.676)" fill="#ccc"/>
      <path id="Path_740" data-name="Path 740" d="M843.439,378.118l3.8,4.04s5.65,46.424,2.56,47.85-9.171,1.251-9.171,1.251l-5.984-22.009Z" transform="translate(-471.102 -301.291)" fill="#ccc"/>
      <circle id="Ellipse_40" data-name="Ellipse 40" cx="10.939" cy="10.939" r="10.939" transform="translate(340.967 40.365)" fill="#a0616a"/>
      <path id="Path_741" data-name="Path 741" d="M783.588,292.791c-.148-2.27-3.011-2.348-5.286-2.369s-4.994.06-6.281-1.816a4.239,4.239,0,0,1,.015-4.289,12.187,12.187,0,0,1,3-3.334,41.518,41.518,0,0,1,9.485-6.681c3.524-1.625,7.654-2.281,11.309-.977,4.49,1.6,10.559,9.849,11.083,14.588a17.184,17.184,0,0,1-4.562,13.109c-3.192,3.541-10.5,2.112-15.1,3.372,2.8-3.956.953-11.144-3.525-12.992Z" transform="translate(-434.249 -239.781)" fill="#2f2e41"/>
      <circle id="Ellipse_41" data-name="Ellipse 41" cx="26.259" cy="26.259" r="26.259" transform="translate(225.591 141.984)" fill="#c11427"/>
      <path id="Path_742" data-name="Path 742" d="M439.313,334.013a18.827,18.827,0,0,1-17.2-11.168L380.446,229.01a24.942,24.942,0,1,1,46.637-17.453l30.173,98.14a18.793,18.793,0,0,1-17.943,24.317Z" transform="translate(-205 -193.896)" fill="#c11427"/>
    </g>
  </g>
</svg>
