<svg xmlns="http://www.w3.org/2000/svg" width="34" height="34" viewBox="0 0 64 64">
  <g id="Group_416" data-name="Group 416" transform="translate(-18661 100)">
    <rect id="Rectangle_491" data-name="Rectangle 491" width="64" height="64" transform="translate(18661 -100)" fill="#8d1d25"/>
    <path id="iconmonstr-shopping-bag-7" d="M7.055,32.078,3,29.209v-19.2l4.055,1.837ZM9.759,12V32.443L27.332,29.8V9.462ZM17.82,1.352a5.747,5.747,0,0,0-5.356,5.767V9.394a.676.676,0,0,0,1.352,0V7.121A4.4,4.4,0,0,1,17.82,2.7a2.585,2.585,0,0,1,1.871.762A3.249,3.249,0,0,1,20.573,5.8V8.162a.675.675,0,0,0,1.349,0l0-2.364A4.181,4.181,0,0,0,17.82,1.352Zm-8.638,8.1a.678.678,0,0,0,.577-.669V5.769a4.4,4.4,0,0,1,4.005-4.418l.219.02A6.727,6.727,0,0,1,15.589.449,3.981,3.981,0,0,0,13.764,0,5.748,5.748,0,0,0,8.408,5.767V8.788a.675.675,0,0,0,.773.668Z" transform="translate(18677.832 -84.221)" fill="#fff"/>
  </g>
</svg>
