<?xml version="1.0" standalone="no"?>
<!DOCTYPE svg PUBLIC "-//W3C//DTD SVG 20010904//EN"
 "http://www.w3.org/TR/2001/REC-SVG-20010904/DTD/svg10.dtd">
<svg version="1.0" xmlns="http://www.w3.org/2000/svg"
 width="2000.000000pt" height="2000.000000pt" viewBox="0 0 2000.000000 2000.000000"
 preserveAspectRatio="xMidYMid meet">

<g transform="translate(0.000000,2000.000000) scale(0.100000,-0.100000)"
fill="#000000" stroke="none">
<path d="M8260 17744 c-63 -5 -282 -34 -291 -40 -3 -1 -16 -5 -30 -7 -193 -36
-487 -163 -689 -298 -266 -179 -505 -441 -619 -681 -27 -55 -14 -36 54 81 134
229 365 460 615 614 244 150 566 259 857 288 155 16 460 6 604 -20 481 -86
898 -320 1203 -673 217 -251 366 -544 427 -842 17 -85 29 -118 29 -82 0 75
-75 314 -145 463 -199 421 -509 742 -935 966 -195 103 -432 182 -640 212 -107
16 -341 26 -440 19z"/>
<path d="M8265 17639 c-148 -7 -208 -17 -387 -60 -80 -20 -125 -35 -121 -42 3
-6 1 -7 -6 -3 -16 10 -83 -13 -75 -26 4 -7 2 -8 -5 -4 -16 10 -53 -3 -45 -16
5 -8 1 -9 -11 -5 -21 9 -229 -88 -221 -102 4 -5 -2 -9 -12 -8 -28 2 -92 -42
-85 -59 3 -9 -1 -14 -12 -14 -10 0 -13 5 -9 12 4 6 3 8 -4 5 -5 -4 -8 -16 -5
-27 4 -16 2 -19 -11 -14 -9 3 -13 11 -9 17 4 6 -8 0 -26 -12 -21 -16 -29 -27
-23 -33 6 -6 16 -7 22 -3 9 6 9 10 -1 16 -11 7 -10 9 4 9 9 0 17 -4 17 -9 0
-14 -28 -33 -39 -27 -5 4 -17 -4 -26 -16 -8 -13 -21 -23 -27 -23 -6 0 -13 -7
-15 -15 -3 -11 -2 -11 4 -3 5 7 14 9 21 4 7 -4 -1 -12 -23 -20 -20 -7 -33 -16
-30 -21 3 -4 -5 -10 -16 -13 -11 -3 -23 -15 -26 -26 -3 -12 -12 -21 -20 -21
-8 0 -11 -4 -8 -10 3 -5 0 -7 -8 -4 -8 3 -18 1 -22 -5 -3 -6 -1 -11 5 -11 6 0
-29 -39 -77 -87 -175 -175 -304 -367 -362 -541 -32 -95 -24 -96 14 -2 231 560
798 937 1520 1011 148 15 447 7 594 -16 561 -87 1050 -363 1343 -758 59 -80
128 -191 159 -257 30 -64 50 -110 50 -117 1 -5 9 -24 20 -44 10 -20 15 -39 12
-43 -3 -3 0 -13 8 -22 8 -10 13 -19 12 -20 -6 -14 13 -44 28 -44 15 0 17 5 12
33 -20 108 -101 340 -115 331 -4 -3 -5 1 -2 9 7 19 -85 193 -163 306 -271 393
-663 667 -1128 786 -221 57 -421 76 -670 64z m-775 -214 c0 -2 -18 -14 -40
-25 -22 -11 -40 -18 -40 -15 0 2 17 13 38 24 42 23 42 23 42 16z m-125 -86
c-4 -5 -12 -9 -20 -9 -7 0 -16 -6 -18 -12 -3 -8 -6 -6 -6 5 -1 9 6 17 14 17 8
0 15 5 15 11 0 5 5 7 10 4 6 -4 8 -11 5 -16z m-275 -229 c0 -5 -5 -10 -11 -10
-5 0 -7 5 -4 10 3 6 8 10 11 10 2 0 4 -4 4 -10z"/>
<path d="M8898 17249 c-5 -16 -39 -19 -51 -4 -5 6 -7 4 -4 -5 2 -8 12 -15 23
-15 12 0 18 -7 18 -17 -1 -10 1 -17 5 -16 18 2 22 -4 11 -17 -12 -14 -5 -20
22 -16 3 0 5 -11 3 -24 -1 -13 1 -23 4 -20 4 2 13 0 21 -6 13 -7 12 -9 -2 -9
-14 0 -15 -4 -5 -29 6 -18 16 -27 24 -24 9 4 11 0 7 -11 -3 -9 -12 -16 -20
-16 -8 0 -14 -4 -14 -10 0 -5 8 -6 17 -3 15 6 16 5 3 -9 -8 -8 -22 -13 -31
-11 -9 3 -23 -2 -31 -11 -9 -8 -33 -17 -54 -20 -22 -2 -39 -5 -39 -6 0 -1 -22
-3 -50 -5 -27 -2 -65 -7 -85 -11 -19 -4 -48 -8 -65 -9 -69 -6 -261 -41 -335
-62 -30 -8 -73 -19 -95 -25 -199 -51 -450 -162 -570 -253 -101 -76 -207 -169
-251 -222 -27 -32 -53 -61 -59 -65 -6 -5 -6 -8 -1 -8 6 0 3 -6 -6 -12 -8 -7
-24 -29 -34 -48 -11 -19 -22 -37 -25 -40 -8 -6 -119 -239 -125 -260 -2 -8 -8
-33 -15 -55 -6 -22 -11 -48 -12 -57 -1 -9 -5 -14 -9 -12 -4 3 -9 -7 -9 -23 -1
-15 -4 -39 -6 -53 -3 -14 -6 -44 -8 -66 -1 -23 -5 -46 -9 -52 -3 -5 -4 -25 -2
-43 2 -18 0 -44 -5 -57 -6 -15 -5 -21 1 -17 6 3 10 1 10 -4 0 -6 -5 -11 -10
-11 -7 0 -7 -6 -1 -19 6 -10 8 -21 5 -24 -4 -3 -8 -41 -10 -84 -2 -43 -5 -98
-8 -122 -2 -25 0 -59 5 -75 6 -20 5 -32 -1 -34 -5 -2 -10 -10 -10 -18 0 -9 4
-12 10 -9 6 4 7 -2 1 -17 -4 -13 -8 -89 -7 -170 1 -82 -1 -148 -4 -148 -3 0
-5 -39 -5 -88 0 -48 -3 -99 -7 -114 -3 -15 -3 -30 0 -32 4 -2 6 -22 4 -43 -12
-147 -2 -1091 13 -1188 8 -51 25 -231 29 -300 1 -11 4 -25 8 -31 4 -6 9 -63
10 -126 3 -123 -7 -162 -45 -174 -17 -5 -15 -10 19 -46 22 -22 59 -51 84 -66
25 -14 67 -42 94 -61 46 -33 50 -34 75 -20 27 15 46 59 55 126 9 75 39 145 79
185 21 21 45 38 53 38 8 0 14 5 14 11 0 7 42 10 133 7 l132 -3 25 29 c32 37
59 86 60 109 0 26 14 20 28 -13 13 -28 12 -33 -22 -80 l-35 -49 32 -6 c18 -3
113 -12 212 -20 175 -15 211 -18 305 -31 25 -3 70 -7 101 -9 64 -5 146 -14
177 -20 12 -2 64 -7 114 -11 119 -8 175 -14 298 -29 19 -3 67 -7 105 -10 73
-6 107 -9 190 -20 28 -3 62 -7 77 -7 17 -1 25 -5 21 -12 -4 -7 -2 -7 7 1 8 7
22 8 41 3 17 -5 29 -5 29 0 0 5 6 7 13 4 8 -3 31 -6 53 -8 46 -4 84 -13 118
-26 20 -7 26 -6 29 8 4 16 5 16 6 0 0 -10 4 -19 9 -19 4 -1 18 -3 31 -4 24 -2
41 -20 41 -42 0 -7 5 -13 12 -13 6 0 9 -2 6 -5 -3 -4 -1 -25 4 -48 5 -23 11
-60 13 -81 2 -22 10 -43 17 -47 10 -7 10 -9 1 -9 -7 0 -13 -9 -13 -20 0 -11
-4 -20 -10 -20 -5 0 -10 -5 -10 -11 0 -5 4 -8 8 -5 5 3 4 -10 -2 -29 -6 -18
-15 -31 -20 -28 -5 4 -7 -1 -3 -9 3 -9 3 -19 -1 -22 -3 -4 -8 -14 -10 -24 -4
-20 -10 -54 -11 -65 -1 -5 -6 -5 -13 -1 -8 5 -9 0 -6 -14 4 -14 2 -20 -5 -15
-6 4 -8 -1 -5 -15 3 -11 -1 -30 -9 -42 -9 -12 -17 -34 -18 -48 -1 -15 -8 -40
-14 -55 -6 -16 -11 -35 -11 -43 0 -8 -4 -14 -10 -14 -5 0 -10 -7 -10 -15 0 -8
-8 -15 -17 -15 -15 0 -16 -2 -3 -10 13 -9 12 -13 -5 -28 -25 -20 -55 -59 -39
-49 12 7 12 -29 -1 -40 -4 -5 -5 -2 -1 5 4 7 1 12 -9 12 -9 0 -13 -4 -10 -10
3 -5 -1 -10 -9 -10 -19 0 -21 -16 -3 -23 6 -2 -4 -9 -23 -15 -19 -6 -27 -11
-16 -11 15 -1 11 -7 -17 -30 -29 -22 -34 -31 -24 -41 10 -10 9 -12 -5 -7 -12
4 -15 2 -11 -9 4 -10 1 -14 -8 -13 -17 4 -75 -48 -66 -58 4 -3 7 -1 7 5 0 17
17 15 24 -4 3 -9 2 -12 -5 -9 -6 4 -13 -2 -16 -14 -6 -22 -19 -28 -25 -11 -2
6 -8 -5 -14 -25 -6 -19 -7 -32 -2 -29 4 3 8 0 8 -5 0 -6 -9 -11 -21 -11 -11 0
-27 -7 -35 -15 -9 -8 -12 -15 -7 -15 5 0 14 5 21 12 7 7 12 8 13 3 0 -6 3 -21
5 -35 4 -24 4 -24 -12 -5 -13 17 -15 17 -10 3 3 -12 0 -18 -9 -18 -12 0 -11
-5 3 -30 16 -30 16 -32 -2 -45 -19 -14 -18 -15 4 -23 15 -6 19 -11 12 -16 -6
-4 -24 1 -39 10 -18 10 -22 11 -11 2 10 -8 14 -19 10 -23 -4 -5 -2 -5 4 -2 7
4 18 -1 25 -10 12 -15 12 -16 -3 -10 -10 3 -18 2 -18 -2 0 -5 -3 -16 -6 -25
-5 -14 -3 -14 22 -1 15 7 32 11 37 8 5 -3 1 -10 -9 -16 -11 -5 -20 -10 -20
-11 -1 -1 -5 -12 -9 -25 -5 -16 -4 -21 4 -17 6 4 11 0 11 -9 0 -9 5 -13 10
-10 6 3 10 -4 10 -16 0 -17 -3 -19 -14 -10 -22 18 -25 -2 -4 -21 10 -10 21
-19 25 -20 4 -2 6 -11 5 -20 -2 -10 2 -18 7 -18 10 0 15 14 12 33 0 4 4 7 9 7
13 0 13 -1 -5 -43 -13 -32 -13 -36 0 -31 10 4 15 0 15 -15 0 -12 6 -21 15 -21
9 0 14 -8 12 -22 -1 -18 2 -22 17 -20 17 3 18 2 7 -12 -11 -13 -11 -16 2 -16
10 0 14 -6 11 -14 -3 -7 2 -16 11 -20 10 -4 14 -2 9 6 -5 7 -3 8 5 3 7 -4 11
-16 8 -26 -3 -11 -1 -19 4 -19 5 0 8 -5 7 -12 -2 -6 11 -19 28 -27 26 -13 30
-20 23 -38 -5 -15 -4 -23 7 -27 9 -3 12 -10 9 -16 -4 -6 1 -7 11 -3 13 5 15 3
9 -7 -6 -10 -4 -12 9 -7 9 4 15 3 12 -2 -3 -5 0 -14 8 -20 8 -7 12 -21 9 -31
-4 -15 0 -20 15 -20 15 0 19 -5 15 -20 -3 -12 0 -20 6 -20 7 0 9 5 5 12 -4 6
-3 8 4 5 5 -4 8 -16 5 -27 -3 -13 0 -20 8 -20 8 0 20 -14 28 -31 7 -17 23 -34
35 -39 11 -5 15 -9 9 -9 -7 -1 -13 -6 -13 -12 0 -5 4 -8 9 -4 5 3 13 0 17 -6
4 -7 3 -9 -4 -5 -6 3 -13 3 -16 -2 -2 -4 9 -17 25 -27 26 -18 33 -30 32 -61 0
-7 8 -9 20 -6 17 4 19 2 13 -21 -5 -22 -3 -25 10 -20 12 4 15 0 12 -18 -2 -16
2 -23 10 -21 8 1 11 -2 8 -7 -4 -5 -2 -12 4 -16 6 -4 8 -11 4 -16 -3 -5 -2 -9
3 -8 20 4 27 -2 13 -12 -13 -9 -12 -10 3 -5 10 3 24 0 32 -7 11 -10 11 -15 -1
-28 -12 -14 -12 -16 1 -16 8 0 15 4 15 9 0 4 4 8 10 8 5 0 7 -7 4 -15 -4 -9 0
-15 7 -15 11 0 11 -2 0 -9 -21 -13 -23 -39 -2 -35 29 7 43 -12 44 -64 1 -27
-1 -48 -5 -46 -4 2 -9 0 -13 -5 -3 -6 -119 -9 -298 -6 -311 3 -570 -8 -575
-25 -2 -5 -9 -10 -15 -10 -6 0 1 12 15 28 37 40 58 74 58 93 0 10 13 30 28 46
l29 28 6 215 c4 118 10 366 13 550 l7 336 -34 36 c-20 20 -51 40 -74 47 -28 8
-159 9 -440 5 -220 -4 -402 -8 -404 -10 -2 -2 176 -4 395 -4 332 0 403 -2 420
-14 19 -15 19 -15 -1 -29 -11 -9 -23 -13 -27 -11 -5 3 -8 0 -8 -6 0 -6 10 -10
23 -9 28 3 56 -9 85 -34 21 -19 22 -28 21 -146 -1 -80 -4 -115 -9 -96 l-8 30
-2 -35 c-1 -19 -2 -46 -3 -59 0 -13 -8 -32 -19 -43 -13 -13 -18 -29 -15 -44 5
-29 3 -30 -20 -5 -18 19 -18 19 -18 -4 0 -13 5 -21 10 -18 6 3 4 0 -3 -8 -11
-12 -16 -11 -32 9 -22 27 -30 28 -23 3 3 -11 -2 -21 -11 -24 -10 -4 -16 -1
-16 9 0 8 -5 12 -10 9 -6 -4 -8 -10 -5 -14 2 -5 -7 -6 -22 -3 -22 4 -25 2 -20
-14 7 -18 6 -18 -7 -1 -7 9 -18 17 -24 17 -7 0 -9 -8 -5 -17 5 -17 5 -17 -12
-1 -13 12 -24 14 -41 7 -13 -4 -24 -6 -24 -3 0 2 -9 0 -19 -6 -13 -7 -22 -7
-26 0 -3 5 -11 10 -16 10 -6 0 -7 -4 -4 -10 6 -9 -7 -12 -62 -13 -12 -1 -19
-5 -16 -11 4 -5 -3 -7 -15 -4 -12 4 -22 2 -22 -3 0 -5 -9 -9 -19 -9 -11 0 -22
-4 -26 -10 -3 -5 -12 -7 -19 -4 -7 3 -19 -2 -26 -11 -7 -8 -18 -15 -24 -15
-17 0 -93 -38 -101 -49 -3 -5 -20 -17 -38 -27 -87 -45 -133 -68 -142 -69 -5
-1 -23 -6 -38 -13 -16 -7 -32 -12 -36 -12 -5 0 -14 -7 -21 -15 -19 -23 -30
-18 -30 14 0 17 -4 33 -10 36 -5 3 -10 18 -11 33 0 15 -4 36 -8 47 -7 17 -13
12 -46 -37 -28 -44 -36 -63 -31 -83 4 -14 11 -25 16 -25 6 0 10 -11 10 -24 0
-35 17 -41 18 -6 1 30 23 83 28 65 1 -6 5 -32 9 -58 6 -48 7 -48 38 -42 167
32 272 73 405 159 105 67 145 81 182 66 17 -7 30 -15 30 -19 0 -24 -124 -148
-189 -191 -122 -79 -291 -228 -291 -256 0 -8 -4 -14 -9 -14 -5 0 -13 -9 -16
-20 -4 -11 -10 -18 -15 -15 -4 3 -16 2 -25 -1 -12 -5 -13 -9 -5 -14 8 -5 0
-11 -19 -18 -17 -6 -31 -15 -31 -19 0 -5 -13 -17 -30 -26 -26 -16 -30 -16 -30
-3 0 21 -4 20 -37 -10 -20 -18 -34 -23 -51 -19 -16 4 -31 0 -43 -11 -12 -11
-27 -14 -44 -10 -14 4 -25 3 -25 -2 0 -5 -10 -8 -22 -8 -15 1 -22 -4 -20 -14
3 -11 -2 -9 -18 5 -21 19 -21 19 -26 -2 -5 -18 -10 -20 -37 -12 -35 10 -71 3
-62 -12 4 -5 -1 -16 -9 -25 -15 -14 -16 -14 -16 0 0 20 -9 20 -71 0 -27 -9
-49 -21 -49 -28 0 -6 -5 -4 -10 4 -6 10 -10 11 -10 3 0 -7 -5 -13 -11 -13 -6
0 -9 7 -6 14 4 10 1 13 -9 9 -11 -4 -12 -8 -3 -20 9 -10 9 -17 1 -25 -8 -8
-13 -7 -17 4 -5 13 -11 12 -45 -5 -22 -10 -40 -23 -40 -27 0 -11 -49 -19 -56
-9 -3 5 -12 3 -19 -5 -8 -8 -37 -17 -65 -21 -49 -7 -63 -17 -37 -29 6 -3 2 -3
-10 0 -16 4 -23 1 -23 -10 0 -9 -6 -13 -14 -10 -8 3 -17 1 -20 -5 -4 -6 -14
-7 -23 -4 -12 5 -15 2 -11 -9 3 -8 1 -15 -5 -16 -72 -11 -87 -16 -87 -29 0
-11 -7 -14 -25 -11 -13 3 -22 1 -19 -3 3 -5 -7 -11 -21 -15 -14 -3 -25 -9 -25
-13 0 -4 -16 -12 -35 -18 -20 -6 -35 -7 -35 -2 0 5 6 9 13 9 7 0 22 7 33 15
14 10 6 9 -29 -4 -27 -10 -52 -22 -55 -28 -4 -5 -26 -9 -49 -7 -24 1 -43 -2
-43 -7 0 -5 -10 -9 -22 -9 -64 1 -179 -18 -195 -32 -8 -7 -19 -5 -34 5 -14 10
-29 13 -43 8 -11 -5 -30 -6 -41 -4 -11 2 -47 5 -80 6 -60 3 -105 19 -105 37 0
5 -6 7 -13 4 -11 -4 -11 -16 -4 -59 l10 -54 51 -5 c28 -3 170 -10 316 -16 315
-13 1574 -110 2154 -165 82 -8 154 -11 160 -8 6 4 63 45 126 93 222 167 544
375 562 364 6 -4 8 -3 5 3 -6 10 70 50 86 45 5 -1 6 2 3 7 -7 11 49 32 60 23
4 -4 4 -1 0 6 -5 8 2 14 23 18 17 4 31 11 31 16 0 5 8 4 19 -1 14 -8 20 -7 25
4 3 9 34 28 68 42 34 15 105 49 156 75 52 26 98 45 103 42 5 -3 9 -1 9 4 0 13
85 39 262 77 171 38 204 41 211 23 4 -10 8 -10 15 0 8 12 13 12 30 1 17 -11
24 -11 34 -1 14 14 32 16 23 2 -3 -5 8 -7 27 -5 18 2 38 -1 45 -7 9 -7 18 -7
30 3 14 12 16 12 11 -1 -5 -13 1 -15 28 -12 19 2 34 0 34 -4 0 -5 11 -9 24 -9
20 0 22 3 13 14 -10 12 -9 12 11 2 12 -6 22 -16 22 -20 0 -5 9 -11 20 -14 11
-3 18 -1 14 4 -3 5 -1 9 5 9 5 0 12 -4 16 -10 3 -5 12 -7 20 -4 9 4 18 -1 21
-11 5 -11 9 -13 14 -5 9 15 40 1 40 -18 0 -12 3 -13 12 -4 15 15 31 16 22 1
-5 -8 3 -10 25 -7 21 3 30 1 27 -7 -2 -6 5 -17 15 -23 12 -8 19 -8 19 -2 0 5
-5 10 -12 10 -6 0 -9 2 -6 5 2 3 23 -4 46 -15 31 -15 40 -25 37 -40 -2 -13 2
-20 11 -20 8 0 13 4 9 9 -3 5 0 13 6 17 13 8 30 -16 22 -30 -4 -5 1 -7 11 -3
18 7 53 -9 72 -32 6 -8 29 -20 50 -27 22 -7 31 -12 22 -13 -10 -1 -18 -5 -18
-9 0 -5 16 -8 35 -7 20 1 33 0 30 -3 -9 -9 17 -32 39 -33 11 0 15 -3 9 -6 -7
-2 -13 -9 -13 -14 0 -4 7 -6 15 -3 8 4 21 1 29 -5 7 -6 17 -7 21 -3 5 4 5 -1
1 -12 -5 -14 -2 -17 9 -12 10 3 15 -1 15 -12 0 -15 2 -15 10 -2 7 11 10 11 10
2 0 -7 5 -10 10 -7 6 3 10 -1 10 -9 0 -9 7 -16 15 -16 8 0 17 -11 21 -25 3
-14 11 -25 16 -25 6 0 8 7 4 15 -5 13 -2 13 19 -1 29 -19 32 -26 8 -18 -12 4
-8 -3 10 -20 15 -14 27 -31 27 -38 0 -10 2 -10 8 -1 4 7 13 9 21 4 10 -6 9
-12 -5 -26 -17 -17 -17 -17 4 -11 14 5 22 3 22 -4 0 -6 4 -8 10 -5 13 8 54
-31 46 -43 -7 -11 19 -10 30 1 4 4 12 7 18 7 6 0 3 -5 -6 -11 -22 -12 -23 -29
-4 -29 8 0 16 -5 18 -12 3 -9 6 -9 12 0 4 7 2 12 -4 12 -6 0 -8 4 -5 10 9 14
34 -12 27 -29 -4 -10 -1 -12 9 -6 12 8 12 6 0 -8 -12 -15 -11 -17 2 -17 11 0
14 -6 10 -15 -3 -10 0 -15 8 -13 9 2 13 -5 12 -22 -1 -14 1 -19 4 -12 4 10 9
7 20 -8 11 -16 18 -19 26 -11 16 16 25 13 23 -6 0 -10 5 -17 12 -15 6 1 11 -1
10 -5 -1 -5 4 -21 10 -36 7 -16 9 -33 6 -39 -4 -6 -2 -8 4 -4 6 3 13 2 17 -4
3 -5 18 -10 33 -10 15 0 22 -4 16 -8 -6 -4 -13 -15 -17 -25 -6 -16 -5 -16 18
-1 22 15 23 14 18 -5 -3 -12 -9 -21 -14 -21 -5 0 -9 -4 -9 -9 0 -6 12 -6 32 0
41 11 38 11 36 -3 -2 -7 2 -12 8 -11 7 1 9 -8 6 -25 -5 -25 -4 -26 12 -13 16
13 17 13 14 -5 -1 -10 2 -18 8 -17 8 1 10 -6 6 -19 -3 -13 -1 -19 5 -15 6 4
14 0 17 -9 3 -8 11 -12 17 -8 8 4 9 -3 4 -27 -7 -32 -7 -33 11 -19 16 14 17
13 11 -2 -8 -22 -3 -23 16 -3 13 12 15 12 20 -5 3 -11 2 -18 -2 -15 -4 2 -8
-2 -8 -9 0 -8 9 -11 25 -8 21 4 24 2 20 -15 -4 -15 1 -25 18 -34 13 -7 25 -22
25 -33 1 -17 2 -18 6 -3 2 9 8 17 13 17 11 0 0 -32 -14 -43 -7 -5 -3 -7 9 -5
11 2 26 -3 33 -12 12 -13 13 -13 7 5 -5 17 -3 17 18 -5 15 -15 21 -29 16 -36
-5 -6 3 -17 22 -28 16 -9 27 -21 25 -25 -8 -12 28 -9 36 3 5 7 8 4 8 -6 0 -10
5 -18 10 -18 6 0 10 -7 10 -16 0 -10 -6 -14 -15 -10 -8 3 -15 1 -15 -4 0 -6 9
-10 21 -10 13 0 18 -4 13 -12 -5 -8 0 -7 11 2 10 8 16 10 12 3 -4 -6 -2 -17 5
-25 7 -7 13 -19 13 -25 0 -7 5 -14 10 -15 6 -1 16 -8 23 -15 8 -7 17 -11 22
-8 4 3 13 -2 20 -10 6 -7 19 -11 28 -9 14 5 14 4 -1 -6 -14 -9 -22 -9 -35 1
-9 8 -14 9 -10 5 4 -5 2 -16 -5 -25 -11 -14 -10 -15 7 -1 18 14 19 13 13 -2
-4 -12 -2 -15 9 -11 10 4 12 0 8 -11 -5 -14 -1 -16 19 -12 14 2 27 1 29 -4 2
-4 41 9 88 30 93 40 180 65 103 29 -24 -11 -43 -24 -43 -30 0 -6 -4 -8 -9 -5
-5 3 -14 -8 -20 -24 -6 -18 -6 -28 -1 -25 6 4 10 1 10 -4 0 -6 9 -20 20 -31
16 -16 17 -20 5 -20 -8 0 -15 -7 -15 -15 0 -9 6 -12 18 -8 9 3 14 3 10 -2 -4
-4 -3 -14 3 -22 9 -10 7 -13 -7 -13 -17 0 -17 -1 2 -15 19 -14 19 -14 -1 -16
-11 -1 -23 -1 -27 0 -4 0 -5 -6 -2 -14 4 -9 1 -22 -6 -30 -11 -13 -10 -14 4
-9 9 3 16 1 16 -5 0 -6 -7 -11 -15 -11 -10 0 -15 -7 -13 -17 2 -10 -3 -17 -9
-15 -18 3 -46 -27 -58 -63 -8 -21 -16 -29 -29 -27 -13 2 -17 -1 -13 -11 3 -9
-4 -19 -18 -25 -13 -6 -26 -20 -30 -32 -3 -11 -11 -18 -16 -15 -8 6 -13 -9
-10 -28 1 -5 -3 -6 -9 -2 -5 3 -15 -5 -21 -19 -7 -14 -16 -23 -20 -20 -5 3 -9
-1 -9 -8 0 -7 -20 -36 -45 -63 -25 -28 -43 -56 -40 -63 3 -7 1 -11 -4 -8 -12
8 -34 -21 -26 -33 3 -6 0 -8 -8 -5 -8 3 -22 -2 -31 -11 -19 -19 -22 -39 -3
-29 6 4 3 -2 -7 -14 -21 -25 -36 -31 -16 -7 10 12 10 15 0 15 -6 0 -14 -9 -17
-19 -3 -11 -18 -24 -34 -30 -16 -6 -27 -6 -24 -2 7 12 -66 20 -87 10 -10 -6
-19 -5 -23 1 -12 20 -27 9 -46 -35 -11 -25 -22 -45 -25 -45 -6 0 2 53 16 100
10 35 13 96 3 73 -2 -7 -9 -13 -14 -13 -6 0 -8 4 -5 9 4 5 0 11 -6 14 -10 3
-10 8 2 23 11 15 11 16 0 6 -20 -18 -29 -15 -23 8 7 28 -26 27 -57 -2 -20 -19
-23 -19 -17 -4 6 14 4 17 -9 12 -14 -5 -15 -4 -4 9 7 8 22 15 34 15 20 1 20 1
3 11 -14 8 -22 8 -30 0 -14 -14 -27 -14 -27 0 0 5 5 7 10 4 6 -3 10 1 10 9 0
22 -9 20 -39 -6 l-25 -23 18 28 c10 16 15 32 11 35 -3 4 -10 0 -14 -7 -9 -14
-31 -7 -31 10 0 6 5 7 10 4 6 -3 10 -1 10 5 0 7 -7 9 -15 6 -20 -8 -42 -14
-33 -9 14 8 -5 34 -36 50 -18 9 -26 18 -18 21 7 2 20 -2 30 -10 15 -12 16 -11
3 5 -8 9 -11 20 -8 24 9 8 -12 33 -27 33 -6 0 -5 -4 3 -9 7 -5 10 -14 7 -20
-4 -6 -12 -9 -17 -6 -5 4 -9 -2 -10 -12 0 -16 -1 -16 -8 2 -5 11 -6 26 -3 34
4 11 1 11 -18 1 -12 -7 -20 -7 -16 -2 3 6 0 13 -6 15 -8 4 -7 6 4 6 9 1 20 6
24 12 5 8 -3 10 -28 5 -27 -5 -38 -2 -53 13 -9 11 -15 27 -12 36 4 8 2 15 -3
15 -6 0 -10 -6 -10 -14 0 -8 -8 -17 -17 -21 -15 -5 -16 -4 -5 6 19 20 14 27
-14 21 -17 -3 -25 -1 -21 6 4 5 0 13 -9 16 -8 3 -12 11 -9 17 5 7 13 5 25 -6
10 -9 27 -15 37 -12 15 4 14 5 -4 6 -12 0 -27 10 -33 21 -6 11 -16 19 -23 17
-7 -1 -11 6 -9 18 2 15 0 17 -6 6 -12 -18 -52 3 -52 27 0 14 -2 15 -10 2 -5
-8 -13 -11 -17 -6 -4 4 1 14 11 22 19 13 19 14 -7 14 -21 0 -25 4 -21 18 5 13
4 14 -4 3 -5 -7 -15 -10 -21 -6 -9 5 -9 10 0 21 10 12 9 13 -5 8 -9 -3 -16
-13 -16 -21 0 -8 -4 -12 -9 -9 -5 4 -8 17 -7 30 3 20 -1 23 -30 21 -23 -1 -31
2 -27 12 3 7 9 11 13 8 5 -3 11 -1 15 5 6 9 -1 11 -45 14 -8 1 -16 7 -16 14
-1 6 -3 15 -4 20 -1 4 -3 14 -4 22 0 8 -7 14 -15 12 -16 -3 -53 27 -46 38 3 5
-7 7 -21 5 -23 -2 -25 0 -20 25 6 31 -2 44 -18 31 -20 -17 -61 -17 -61 -1 0 8
-7 14 -16 13 -8 -2 -15 5 -16 16 -1 14 3 18 15 15 15 -5 15 -4 -1 6 -9 6 -23
8 -30 4 -6 -4 -4 1 5 12 16 18 15 20 -7 42 -29 28 -42 29 -16 0 11 -11 18 -26
14 -31 -3 -6 -11 -3 -19 7 -7 10 -17 15 -22 12 -6 -4 -8 3 -5 15 5 16 2 20 -8
17 -8 -3 -13 -12 -11 -19 1 -8 -4 -7 -12 4 -8 11 -12 25 -10 32 4 10 -1 12
-17 8 -15 -4 -20 -3 -15 5 4 7 2 12 -4 12 -16 0 -40 26 -32 35 4 4 -3 4 -15 1
-15 -5 -23 -3 -23 4 0 7 -7 9 -16 6 -12 -4 -15 -2 -10 9 3 8 1 15 -5 15 -6 0
-8 4 -5 9 3 4 -9 7 -26 5 -31 -4 -31 -3 -15 13 16 16 15 18 -14 30 -19 8 -28
17 -24 25 4 7 -1 4 -9 -6 -13 -16 -13 -22 -3 -28 8 -5 9 -8 0 -8 -6 0 -21 12
-32 26 -17 22 -19 30 -9 42 11 13 10 15 -4 9 -13 -4 -18 -1 -18 10 0 13 -3 13
-16 2 -11 -9 -18 -9 -22 -2 -4 6 -19 10 -33 8 -21 -2 -26 1 -22 15 6 23 -32
37 -53 19 -12 -10 -13 -9 -7 6 5 14 3 17 -9 13 -12 -5 -14 0 -10 20 4 20 2 24
-12 19 -10 -4 -16 -1 -16 7 0 8 -7 16 -15 20 -11 4 -15 -1 -15 -17 0 -18 2
-19 11 -7 9 12 10 12 7 1 -7 -23 -28 -25 -28 -2 0 11 -4 23 -10 26 -5 3 -10 1
-10 -4 0 -6 -4 -11 -9 -11 -4 0 -6 12 -4 28 l4 27 -14 -24 c-8 -13 -17 -19
-20 -14 -4 6 -18 9 -31 8 -22 -3 -24 -1 -13 16 6 10 16 19 21 19 4 0 3 -7 -4
-15 -11 -13 -9 -15 8 -12 12 2 24 6 28 9 8 9 -35 31 -49 25 -20 -8 -59 12 -51
25 4 7 -4 3 -18 -10 l-26 -24 -18 31 c-20 35 -29 38 -38 16 -3 -8 -10 -15 -16
-15 -6 0 -9 4 -6 9 3 4 -4 17 -15 27 -21 18 -21 18 -40 -5 -11 -13 -22 -21
-26 -18 -3 4 0 14 8 24 12 15 12 16 -3 10 -11 -4 -21 0 -27 11 -9 16 -10 16
-16 0 -4 -9 -13 -14 -21 -11 -8 3 -11 10 -7 16 4 6 0 8 -11 4 -14 -5 -15 -3
-6 12 8 16 7 18 -9 14 -13 -3 -18 -11 -14 -21 4 -12 0 -10 -13 4 -16 20 -19
20 -33 5 -9 -9 -13 -12 -8 -7 13 18 8 21 -33 21 -29 1 -40 -3 -41 -15 0 -10
-2 -11 -6 -2 -7 17 -23 15 -45 -5 -18 -16 -18 -16 -12 2 6 15 4 17 -10 12 -14
-6 -16 -3 -12 16 3 12 3 16 0 10 -3 -7 -10 -13 -15 -13 -6 0 -7 6 -4 13 4 6 1
5 -7 -3 -11 -12 -77 -20 -98 -11 -21 9 -40 7 -40 -5 0 -8 9 -14 20 -14 11 0
20 -4 20 -9 0 -13 -37 -2 -51 15 -6 8 -16 14 -21 14 -6 0 -6 -5 1 -14 9 -11 5
-13 -23 -12 -19 0 -32 4 -29 9 5 9 -11 9 -20 0 -4 -3 -2 -12 4 -20 22 -25 -4
-13 -28 15 -21 22 -23 23 -14 5 9 -18 9 -23 -1 -24 -7 -1 -29 -4 -48 -6 -19
-2 -42 -5 -51 -6 -10 -1 -15 -7 -12 -15 4 -9 9 -10 16 -3 6 6 18 11 27 11 9
-1 6 -6 -10 -14 -17 -10 -30 -11 -42 -5 -12 7 -18 6 -18 -1 0 -7 -9 -9 -22 -5
-22 6 -22 6 2 -11 39 -27 90 -77 90 -88 0 -6 -17 6 -37 26 -21 21 -63 48 -93
62 -65 29 -116 43 -107 29 3 -5 -3 -17 -14 -26 -10 -9 -19 -12 -19 -7 0 6 -9
6 -23 1 -13 -5 -46 -12 -73 -16 -51 -6 -86 -12 -94 -15 -3 -1 -22 -2 -42 -2
-21 0 -38 -4 -38 -9 0 -4 -6 -6 -13 -3 -8 3 -20 -2 -27 -11 -11 -13 -15 -13
-21 -3 -7 11 -9 11 -9 0 0 -16 -21 -38 -35 -39 -5 0 -18 -12 -30 -27 -18 -24
-21 -47 -26 -189 -5 -163 -12 -2871 -11 -4447 1 -520 1 -501 -9 -494 -5 3 -9
1 -9 -5 0 -5 -24 -12 -52 -16 -69 -8 -235 17 -528 80 -36 8 -132 28 -215 45
-204 42 -426 94 -465 107 -8 3 -22 7 -30 8 -8 1 -26 5 -40 9 -38 9 -351 75
-385 81 -16 3 -37 8 -46 11 -9 2 -32 7 -50 9 -34 5 -208 43 -324 71 -33 8 -91
21 -130 29 -98 20 -105 21 -155 35 -25 7 -65 14 -90 17 -24 2 -49 8 -55 12 -5
5 -23 11 -40 13 -16 3 -82 17 -145 31 -63 15 -126 29 -140 32 -14 2 -65 14
-115 26 -49 11 -97 21 -105 21 -8 0 -19 4 -25 8 -5 5 -26 11 -45 14 -61 10
-95 17 -112 22 -20 6 -57 14 -78 18 -8 1 -28 6 -45 10 -91 23 -184 45 -210 49
-16 3 -73 16 -125 29 -52 14 -122 31 -155 38 -33 7 -85 18 -115 25 -30 7 -73
16 -95 20 -50 8 -238 52 -520 121 -120 30 -224 53 -230 51 -23 -8 113 -48 345
-102 326 -75 632 -152 667 -167 15 -6 35 -18 44 -26 10 -7 31 -14 48 -14 18
-1 31 -6 31 -14 0 -7 5 -14 11 -16 13 -4 16 -101 4 -137 -6 -21 -5 -23 15 -18
13 3 28 0 36 -8 16 -16 19 -29 4 -20 -14 9 -12 -19 2 -33 9 -9 9 -12 1 -12 -7
0 -15 5 -18 10 -3 6 -11 10 -16 10 -12 0 -2 -38 15 -59 9 -11 12 -9 17 10 5
17 7 11 8 -23 1 -27 -3 -48 -7 -48 -5 0 -9 -6 -9 -14 0 -8 3 -15 6 -14 17 2
20 -4 12 -26 -6 -13 -6 -40 -1 -62 6 -25 5 -43 -2 -51 -8 -10 -7 -12 6 -7 9 3
16 1 16 -5 0 -6 -4 -11 -8 -11 -10 0 -10 -46 0 -55 4 -4 4 -13 1 -21 -4 -10 0
-12 11 -8 9 4 16 3 15 -2 -6 -35 14 -44 44 -21 14 10 19 53 32 257 8 135 18
271 21 304 6 56 7 58 33 53 181 -38 869 -193 1121 -252 179 -42 433 -100 565
-130 236 -53 318 -70 745 -159 118 -25 256 -54 305 -65 50 -11 144 -31 210
-45 66 -14 128 -30 137 -36 10 -5 27 -10 38 -10 12 0 20 -7 20 -17 0 -9 3 -13
7 -10 3 4 15 0 25 -10 15 -14 22 -14 42 -3 25 13 56 8 56 -9 0 -6 -7 -8 -15
-5 -11 5 -13 2 -9 -10 3 -9 10 -13 15 -10 5 3 9 0 9 -6 0 -7 -9 -14 -20 -17
-11 -3 -20 -10 -20 -15 0 -5 8 -7 18 -4 15 5 21 -2 30 -31 l11 -38 -5 48 c-3
28 -1 47 5 47 10 0 11 -1 14 -102 1 -36 5 -70 10 -74 4 -4 7 -2 7 4 0 22 27
12 38 -13 6 -14 7 -25 3 -25 -5 0 -12 8 -14 17 -4 14 -5 13 -6 -4 0 -12 4 -23
9 -25 6 -2 12 -22 13 -45 1 -29 5 -39 14 -36 7 3 13 -1 13 -8 0 -10 2 -11 8
-2 5 8 13 9 22 3 12 -8 11 -10 -5 -11 -11 -1 -26 -2 -33 -2 -7 1 -11 -4 -9
-11 2 -6 12 -10 22 -8 11 2 15 -2 13 -10 -3 -7 -13 -12 -22 -10 -13 2 -16 -5
-14 -42 2 -25 6 -46 11 -46 4 0 7 5 7 10 0 6 5 10 10 10 6 0 10 -8 10 -18 0
-10 9 -25 20 -35 21 -17 27 -37 11 -37 -5 0 -11 9 -14 20 -9 34 -27 23 -24
-15 2 -35 11 -45 20 -22 4 7 6 6 6 -4 1 -9 -5 -19 -12 -22 -17 -6 -23 -147 -7
-147 11 0 13 12 11 47 -1 11 3 25 10 29 8 5 11 2 7 -7 -3 -8 -2 -23 3 -34 5
-13 7 0 7 38 -1 45 -3 55 -13 47 -8 -6 -16 -7 -19 -2 -7 12 3 22 23 22 14 0
19 40 38 306 12 168 23 307 25 309 2 2 142 24 312 50 170 25 319 51 330 57 12
7 33 11 49 10 15 -1 123 13 240 32 116 19 291 46 387 61 96 14 247 37 335 50
88 13 183 27 211 31 78 10 77 9 64 104 -14 101 -10 120 36 165 l36 36 -27 212
c-55 440 -115 831 -206 1351 -22 125 -38 233 -36 240 2 6 12 -35 22 -92 10
-56 21 -102 26 -102 4 0 5 15 1 33 -3 17 -6 50 -6 72 -1 22 -4 42 -8 45 -8 6
-18 72 -23 155 -3 33 -7 71 -11 85 -6 24 -10 59 -17 130 -1 19 -5 40 -9 45 -3
6 -4 38 -3 73 2 35 -1 60 -6 56 -13 -8 -11 10 3 24 9 9 8 12 -6 12 -11 0 -14
4 -10 12 9 15 9 57 -1 80 -4 9 -4 22 0 28 3 5 -2 10 -12 10 -15 0 -16 2 -3 10
11 7 12 12 4 20 -7 7 -8 26 -4 50 4 22 5 42 2 45 -3 3 -7 29 -9 57 -5 69 -11
126 -16 161 -3 20 -1 27 9 23 8 -3 11 0 7 10 -3 7 -9 14 -14 14 -6 0 -5 8 1
19 13 25 13 34 0 26 -13 -8 -13 8 1 22 7 7 8 17 1 30 -7 12 -7 25 -1 36 7 11
6 24 -1 37 -6 11 -9 35 -7 55 2 19 0 35 -5 35 -5 0 -2 7 6 16 17 17 21 28 7
20 -12 -8 -21 18 -11 34 4 7 4 26 0 41 -5 17 -5 31 1 35 5 3 7 14 4 25 -5 14
-3 17 9 13 12 -5 15 -2 10 10 -3 9 -10 13 -15 10 -5 -3 -9 2 -9 11 0 10 5 14
13 10 6 -4 4 0 -5 8 -22 17 -23 31 -3 23 18 -7 20 10 3 17 -9 4 -9 8 -3 14 15
12 18 55 2 48 -6 -4 -3 1 7 9 12 10 15 16 7 16 -8 0 -11 6 -7 16 3 8 2 12 -3
9 -5 -3 -13 0 -17 6 -4 8 -3 9 4 5 6 -3 16 3 22 15 8 15 9 19 1 15 -6 -4 -11
0 -11 9 0 9 5 13 11 9 8 -4 9 1 3 17 -4 13 -7 43 -6 66 1 23 -3 45 -8 48 -6 4
-4 12 5 21 11 12 12 20 5 35 -8 15 -7 19 5 19 8 0 15 5 15 10 0 6 -7 10 -16
10 -14 0 -15 2 -3 17 11 13 11 17 2 20 -7 3 -13 9 -13 14 0 6 4 8 8 5 5 -3 9
9 10 26 0 17 6 34 12 38 7 4 4 16 -10 33 -12 15 -18 27 -13 27 4 0 2 4 -5 9
-9 5 -11 17 -6 34 6 27 24 37 24 15 0 -9 4 -8 10 2 7 11 4 17 -13 22 -19 5
-18 6 7 7 34 1 146 -28 146 -38 0 -4 8 -7 18 -8 27 -2 87 -39 85 -51 -2 -6 4
-9 12 -6 21 9 65 -23 65 -46 0 -23 16 -35 23 -18 3 7 6 5 6 -6 1 -11 4 -16 8
-13 11 12 42 -24 36 -41 -4 -10 -2 -13 5 -8 8 5 13 -1 14 -16 0 -13 2 -30 2
-38 1 -10 9 -14 26 -12 20 3 22 2 12 -11 -9 -10 -10 -17 -2 -22 5 -3 10 -11
10 -16 0 -6 -4 -7 -10 -4 -5 3 -10 1 -10 -5 0 -7 8 -9 20 -5 11 4 20 2 20 -4
0 -6 -5 -11 -12 -11 -6 0 -4 -6 7 -13 10 -8 15 -19 12 -24 -4 -6 0 -16 8 -23
13 -11 13 -14 -2 -26 -11 -8 -13 -13 -5 -14 6 0 12 -4 12 -10 0 -5 -8 -6 -17
-3 -16 6 -16 5 -4 -11 11 -13 11 -20 3 -28 -9 -9 -12 -8 -12 6 0 10 -5 14 -11
10 -7 -4 -1 -17 16 -34 15 -16 24 -33 21 -38 -3 -6 1 -12 9 -16 18 -7 13 -52
-6 -48 -10 3 -10 0 1 -12 7 -9 9 -16 4 -17 -5 0 9 -9 31 -19 33 -16 37 -20 21
-26 -11 -4 -22 -2 -28 7 -8 11 -9 10 -4 -4 3 -10 6 -21 6 -23 0 -2 6 -4 13 -4
9 0 13 -12 12 -35 -1 -42 -10 -52 -30 -35 -9 7 -18 10 -21 7 -3 -3 8 -12 24
-21 34 -18 41 -30 36 -70 -2 -22 4 -36 24 -53 25 -22 26 -25 10 -37 -10 -7
-18 -17 -18 -21 0 -4 -8 -14 -17 -22 -10 -7 -13 -13 -8 -12 25 3 37 -2 32 -15
-3 -8 1 -17 9 -20 9 -3 12 -11 8 -17 -5 -8 -8 -8 -14 0 -5 9 -11 7 -21 -5 -13
-15 -11 -17 18 -12 26 4 30 2 22 -9 -6 -7 -16 -10 -23 -6 -6 4 -5 -1 3 -10 7
-9 19 -17 26 -17 7 0 15 -7 19 -15 3 -8 1 -15 -4 -15 -6 0 -10 4 -10 9 0 5
-10 11 -22 14 -21 6 -21 4 5 -19 15 -13 27 -24 25 -25 -26 -6 -38 -5 -38 2 0
6 -4 7 -10 4 -6 -3 -10 -11 -10 -16 0 -6 5 -7 12 -3 8 5 9 2 5 -10 -5 -12 -3
-16 5 -13 7 2 12 9 11 15 -2 6 4 9 12 6 11 -5 8 -11 -12 -30 -25 -23 -25 -24
-5 -24 11 0 24 -5 28 -12 5 -8 2 -9 -9 -5 -9 3 -19 1 -23 -5 -4 -7 -3 -8 4 -4
7 4 12 1 13 -6 2 -33 9 -51 26 -64 12 -9 14 -16 7 -21 -18 -13 -25 -70 -9 -77
9 -3 12 0 8 10 -3 7 0 14 6 14 17 0 13 -30 -4 -36 -8 -4 -22 0 -31 7 -14 11
-16 11 -13 -4 2 -10 6 -17 9 -16 3 1 15 -3 27 -9 16 -9 22 -9 25 0 3 9 6 9 12
-1 5 -8 1 -14 -13 -18 -11 -3 -18 -9 -15 -14 3 -5 -2 -12 -10 -15 -9 -3 -13
-10 -10 -15 3 -5 2 -9 -3 -9 -4 0 -13 -11 -19 -24 l-12 -25 29 21 c16 12 29
27 29 32 1 13 29 -35 29 -49 1 -5 -4 -3 -10 5 -8 11 -12 12 -16 2 -2 -6 -8
-10 -12 -8 -4 3 -13 0 -21 -6 -13 -8 -12 -9 2 -5 23 8 31 -20 12 -48 -10 -15
-12 -25 -5 -30 6 -3 11 0 11 8 0 8 10 22 21 33 22 19 22 19 10 -3 -9 -17 -9
-23 0 -23 8 0 8 -4 -1 -15 -8 -10 -9 -15 -2 -15 6 0 9 -7 5 -15 -3 -9 2 -22
13 -31 18 -14 18 -14 0 -7 -15 5 -18 3 -13 -10 3 -9 3 -16 -1 -16 -24 4 -23
-4 3 -17 17 -8 22 -12 13 -9 -10 2 -18 0 -18 -4 0 -5 -3 -18 -6 -28 -6 -15 -4
-16 7 -5 7 6 17 12 23 12 5 0 -1 -9 -14 -20 -29 -25 -19 -37 17 -21 26 12 44
2 42 -24 0 -5 -3 -4 -6 3 -7 17 -23 15 -23 -3 0 -18 -12 -19 -28 -3 -9 9 -12
8 -12 -6 0 -14 6 -17 23 -14 13 2 28 -1 35 -8 10 -11 7 -16 -10 -25 -21 -11
-22 -11 -9 5 12 14 12 16 -3 10 -9 -3 -16 -10 -16 -16 0 -5 -6 -6 -12 -2 -9 6
-9 3 1 -9 7 -9 11 -23 8 -31 -8 -20 4 -28 20 -14 11 8 12 7 7 -5 -4 -12 -1
-14 17 -10 16 4 20 2 17 -8 -5 -16 -28 -19 -46 -6 -9 7 -11 6 -7 -5 4 -9 16
-20 28 -26 l22 -11 -22 0 c-16 -1 -21 -6 -17 -16 8 -19 0 -19 -20 1 -9 8 -16
11 -16 6 0 -11 18 -27 42 -35 12 -4 15 -2 11 9 -3 7 -1 14 5 14 5 0 12 -11 14
-24 4 -17 1 -23 -9 -19 -7 3 -13 -2 -13 -12 0 -9 4 -14 9 -10 5 3 12 -3 15
-12 9 -29 7 -38 -12 -38 -25 0 -21 -25 8 -42 25 -15 25 -15 3 2 -13 10 -23 22
-23 27 0 6 7 5 15 -2 10 -9 15 -9 15 -1 0 6 5 11 10 11 6 0 10 -7 10 -15 0 -8
5 -15 11 -15 5 0 7 -5 3 -12 -4 -6 -8 -31 -9 -54 0 -23 -7 -49 -14 -58 -17
-21 -3 -21 20 0 16 15 17 14 14 -8 -1 -12 -4 -30 -6 -38 -2 -8 1 -14 8 -13 13
3 8 -22 -9 -44 -5 -7 -4 -13 3 -15 9 -3 8 -13 -4 -38 -22 -43 -21 -47 3 -19
l19 24 1 -23 c0 -13 -4 -21 -9 -17 -6 3 -9 -4 -8 -15 1 -11 7 -20 15 -20 7 0
10 5 6 12 -4 7 -3 8 5 4 6 -4 8 -12 5 -18 -4 -6 -1 -14 6 -18 8 -5 7 -9 -5
-13 -9 -4 -13 -3 -10 3 3 5 -3 8 -14 7 -19 -1 -19 -2 -3 -18 13 -13 20 -14 31
-5 12 8 13 8 7 -2 -5 -8 -1 -19 10 -27 18 -13 18 -14 -3 -8 -14 3 -23 1 -23
-6 0 -6 6 -11 13 -11 6 0 17 -11 23 -24 9 -20 9 -26 -4 -31 -8 -3 -20 -1 -26
5 -8 8 -6 9 7 5 23 -9 22 12 -1 24 -15 8 -18 6 -17 -7 3 -31 28 -72 39 -65 6
4 3 -6 -8 -22 -17 -27 -18 -29 -2 -41 14 -10 15 -14 4 -21 -7 -4 -18 -15 -25
-23 -10 -13 -8 -16 10 -17 16 -2 18 0 8 6 -11 7 -10 11 7 20 17 9 19 8 15 -9
-3 -11 -9 -23 -14 -26 -17 -10 -9 -25 11 -19 11 4 20 2 20 -4 0 -10 -14 -15
-32 -12 -5 0 -8 -8 -8 -19 0 -11 0 -23 -1 -27 0 -4 4 -9 9 -11 6 -2 8 7 5 20
-4 18 -2 20 5 8 6 -8 8 -28 5 -45 -6 -28 -5 -29 12 -15 18 14 18 14 3 -9 -9
-13 -14 -31 -10 -40 5 -14 4 -14 -12 -2 -12 10 -14 16 -5 21 7 5 8 10 1 14 -5
3 -13 -1 -16 -9 -7 -19 25 -53 45 -48 8 3 7 0 -3 -7 -10 -6 -18 -21 -18 -33 0
-13 -5 -28 -12 -35 -7 -7 -8 -12 -2 -12 5 0 14 4 20 10 14 14 36 -4 28 -23 -3
-9 -10 -17 -15 -17 -13 0 -11 18 4 23 9 4 9 6 0 6 -7 1 -17 -9 -24 -20 -6 -12
-7 -19 -1 -15 5 3 18 -7 27 -22 10 -15 14 -24 10 -20 -12 11 -35 -11 -28 -28
3 -8 15 -14 27 -15 11 0 15 -3 9 -6 -7 -2 -13 -11 -13 -19 0 -8 -9 -14 -19
-14 -24 0 -36 -16 -20 -26 7 -4 9 -3 6 3 -4 6 6 10 23 11 16 0 33 -4 36 -10 4
-6 -1 -8 -14 -4 -11 4 -23 2 -27 -4 -3 -5 0 -10 7 -10 8 0 14 -9 15 -20 2 -18
0 -19 -13 -5 -19 19 -31 20 -15 2 6 -8 8 -17 5 -20 -4 -3 5 -4 20 -1 14 2 26
0 26 -6 0 -5 -4 -10 -10 -10 -14 0 -12 -66 3 -90 10 -17 9 -22 -2 -29 -11 -7
-9 -13 10 -32 15 -15 17 -21 6 -16 -9 3 -17 2 -17 -4 0 -5 6 -12 14 -15 9 -3
13 -16 11 -32 -2 -15 -4 -30 -4 -34 -1 -5 -11 -8 -22 -8 -18 0 -19 -2 -9 -15
7 -8 17 -12 23 -8 6 3 7 1 3 -5 -4 -7 -17 -12 -29 -13 -12 0 -16 -3 -9 -6 6
-2 10 -9 6 -14 -3 -5 -1 -9 4 -9 6 0 12 -7 15 -15 5 -11 0 -13 -22 -9 -18 4
-32 0 -41 -11 -12 -15 -12 -16 6 -13 10 1 23 8 27 13 5 6 7 4 4 -5 -2 -8 -10
-14 -16 -12 -6 1 -11 -3 -11 -8 0 -6 10 -8 23 -5 40 8 100 15 217 25 150 13
183 12 175 0 -4 -6 -12 -9 -18 -8 -7 2 -27 -8 -44 -20 -18 -13 -37 -20 -43
-17 -5 3 -10 1 -10 -4 0 -6 -11 -11 -25 -11 -14 0 -25 -4 -25 -9 0 -5 -8 -8
-17 -7 -10 0 -17 -4 -16 -10 1 -7 -6 -10 -17 -7 -11 3 -20 0 -20 -6 0 -6 6
-11 13 -11 8 0 8 -3 -2 -9 -8 -5 -12 -18 -9 -29 4 -15 2 -19 -8 -15 -16 6 -19
-13 -4 -22 6 -3 10 -11 10 -18 0 -8 -3 -8 -12 1 -7 7 -21 12 -33 12 -15 0 -17
-2 -6 -9 14 -9 8 -66 -7 -57 -4 2 -14 -3 -22 -12 -15 -17 -17 -17 35 4 8 3 15
1 15 -6 0 -6 -4 -8 -10 -5 -5 3 -10 1 -10 -4 0 -6 -9 -11 -21 -11 -12 0 -19
-5 -17 -12 6 -17 -54 -71 -63 -57 -4 6 -8 7 -10 3 -2 -5 -25 -20 -51 -33 -27
-13 -48 -28 -48 -34 0 -5 -7 -7 -15 -3 -8 3 -15 1 -15 -4 0 -7 -47 -23 -75
-25 -5 0 -15 -4 -21 -7 -11 -7 -157 -57 -184 -63 -8 -2 -40 -13 -70 -25 -30
-12 -64 -23 -74 -24 -20 -1 -44 -56 -25 -56 6 0 8 -4 5 -8 -3 -5 3 -22 13 -39
30 -48 96 -73 235 -86 l121 -12 6 -80 c5 -79 5 -79 7 -19 2 55 5 64 29 79 15
10 39 20 53 22 14 3 39 7 55 10 64 11 226 5 241 -10 4 -4 20 -7 35 -7 28 0
129 -47 129 -60 0 -5 16 -17 35 -29 19 -11 35 -26 35 -33 0 -15 35 -48 50 -48
6 0 10 -4 10 -10 0 -5 -4 -10 -9 -10 -5 0 -4 -13 2 -29 6 -17 15 -27 21 -24 5
4 7 -3 4 -15 -4 -12 -3 -20 2 -17 4 2 15 -10 25 -28 14 -27 15 -38 6 -54 -8
-16 -8 -23 2 -26 8 -4 9 -8 1 -14 -6 -4 -15 -21 -21 -38 -7 -21 -18 -32 -39
-36 -40 -9 109 -1 226 12 52 6 113 17 135 25 21 7 39 12 40 11 0 -1 11 -22 25
-47 13 -25 29 -55 35 -67 5 -13 13 -23 18 -23 4 0 7 -6 7 -14 0 -8 15 -25 33
-37 27 -19 29 -20 16 -3 -21 24 -61 104 -84 169 -10 28 -25 58 -34 68 -12 15
-18 65 -28 225 -18 322 -21 297 30 311 70 21 190 80 221 109 45 43 56 80 56
194 l0 103 812 122 c463 69 815 118 818 112 4 -5 14 -138 24 -296 21 -350 11
-328 156 -328 75 0 103 4 114 15 12 12 21 90 40 339 16 210 29 326 36 331 7 4
46 10 88 14 151 13 522 74 546 90 34 22 45 85 56 316 11 223 27 1040 36 1810
7 567 -11 2129 -26 2273 -10 99 -29 140 -80 175 -35 23 -139 58 -200 67 -19 2
-55 9 -80 15 -24 6 -53 9 -62 7 -10 -3 -20 -1 -23 4 -4 5 -16 9 -28 8 -12 0
-47 5 -77 10 -30 5 -80 12 -110 15 -30 3 -91 10 -135 15 -45 6 -92 11 -105 10
-14 0 -61 4 -105 10 -144 18 -815 66 -1285 91 -107 6 -229 12 -270 15 -41 3
-178 9 -305 15 -126 6 -266 12 -310 14 -73 3 -87 7 -140 41 -33 21 -70 44 -83
52 -21 13 -22 15 -6 45 18 35 17 74 -11 278 -9 63 -20 158 -25 210 -19 182
-84 308 -179 349 -47 20 -53 20 -75 6 -14 -9 -33 -15 -43 -13 -24 4 -60 -23
-72 -53 -5 -15 -29 -36 -61 -52 -82 -43 -100 -35 -100 40 0 26 8 42 31 64 37
34 78 43 169 37 l68 -5 4 61 c3 41 0 65 -9 72 -9 8 -11 30 -6 80 6 62 5 68
-10 56 -8 -7 -15 -27 -15 -43 1 -21 -7 -38 -24 -54 -25 -23 -28 -24 -459 -39
-238 -9 -434 -15 -435 -13 -6 6 -35 297 -32 323 3 25 8 30 43 36 52 9 317 9
581 -1 187 -7 216 -10 252 -29 72 -37 82 -54 78 -121 -3 -56 -2 -59 15 -48 13
8 19 23 18 42 -1 32 9 135 17 174 l5 24 -478 -6 c-338 -3 -495 -9 -535 -18
-58 -13 -81 -8 -60 13 7 7 12 22 12 34 0 14 8 25 20 29 11 3 20 14 21 23 1 51
12 108 21 119 6 7 19 13 29 13 23 0 23 -2 -2 84 -29 96 -62 159 -113 215 -24
25 -87 127 -141 226 -114 209 -172 304 -269 435 -73 99 -215 247 -279 290 -20
14 -37 28 -37 33 0 4 16 7 35 7 61 0 132 46 163 105 43 83 67 271 83 650 11
267 17 876 10 1160 l-3 160 23 3 c13 2 33 12 44 22 12 11 39 20 65 22 l45 3
18 57 c16 47 24 59 49 67 17 6 34 8 39 5 14 -8 36 53 49 139 13 89 7 131 -22
151 -27 19 -47 79 -49 151 -2 57 -2 55 -11 -30 -5 -49 -11 -118 -14 -152 -3
-35 -10 -63 -15 -63 -6 0 -7 5 -4 10 3 6 2 10 -4 10 -5 0 -13 -4 -16 -10 -3
-5 -11 -10 -16 -10 -6 0 -7 4 -4 10 3 6 -1 7 -9 4 -14 -5 -16 13 -17 142 -1
82 -4 190 -8 239 -7 78 -8 64 -11 -110 -1 -110 -5 -211 -9 -225 -6 -24 -41
-39 -41 -18 0 6 -9 8 -20 5 -10 -3 -20 -2 -22 3 -2 4 -16 13 -33 21 -40 19
-50 62 -70 303 -16 201 -47 450 -65 517 -6 20 -21 52 -35 72 -13 20 -31 56
-39 79 -66 193 -103 275 -174 383 -88 132 -254 285 -378 348 -31 15 -60 40
-76 64 -15 23 -49 52 -87 73 -34 19 -109 63 -166 96 -118 69 -270 138 -285
129 -6 -3 -10 -2 -10 3 0 5 -6 9 -12 10 -36 3 -54 8 -59 16 -4 4 -9 2 -11 -5z
m67 -169 c3 -5 1 -10 -4 -10 -6 0 -11 5 -11 10 0 6 2 10 4 10 3 0 8 -4 11 -10z
m65 -285 c68 -14 127 -29 130 -32 3 -3 -7 -3 -22 -1 -16 3 -28 1 -28 -4 0 -5
-4 -6 -10 -3 -5 3 -10 -1 -10 -9 0 -9 -6 -13 -14 -10 -11 4 -13 0 -9 -15 4
-17 2 -20 -12 -14 -11 4 -16 2 -12 -4 3 -5 -2 -32 -12 -59 -10 -27 -16 -55
-14 -61 3 -8 -4 -13 -19 -14 -12 0 -17 -3 -10 -6 19 -8 14 -23 -8 -23 -22 0
-27 -15 -8 -26 7 -4 8 -3 4 4 -4 7 -3 12 1 12 5 0 13 -8 19 -18 10 -16 8 -18
-14 -18 -19 1 -28 -5 -30 -19 -2 -16 -1 -17 7 -5 7 11 10 5 9 -20 -1 -22 -8
-40 -20 -48 -13 -10 -16 -18 -9 -31 5 -9 6 -23 1 -31 -4 -7 -6 -19 -3 -27 3
-7 0 -13 -7 -13 -7 0 -5 -6 5 -16 18 -18 16 -36 -6 -42 -11 -4 -11 -2 -2 8 10
11 9 16 -5 26 -21 16 -42 18 -42 3 0 -5 4 -8 9 -5 10 6 25 -24 16 -32 -3 -3
-5 0 -5 8 0 10 -3 10 -16 -1 -14 -12 -14 -14 3 -20 16 -7 16 -8 -5 -15 -18 -5
-21 -9 -10 -16 9 -6 0 -8 -26 -6 -31 4 -35 2 -22 -7 9 -7 16 -21 15 -31 0 -18
-1 -18 -9 1 -5 11 -9 14 -9 8 -1 -7 -8 -13 -17 -13 -9 0 -12 -5 -8 -12 5 -8 2
-9 -11 -4 -18 7 -18 6 0 -14 12 -13 14 -20 5 -20 -7 0 -19 8 -27 18 -11 13
-13 14 -12 2 3 -20 -11 -50 -22 -50 -6 0 -4 10 2 23 l12 22 -25 -22 c-13 -13
-32 -23 -41 -23 -9 0 -19 -5 -22 -10 -4 -6 -11 -8 -16 -5 -5 4 -9 -1 -9 -9 0
-9 -8 -16 -19 -16 -10 0 -22 -7 -25 -16 -4 -10 -14 -14 -26 -11 -11 3 -23 1
-26 -4 -3 -5 1 -10 8 -10 7 -1 -3 -5 -22 -9 -72 -16 -83 -20 -89 -25 -3 -3 1
-11 9 -16 13 -9 13 -10 0 -8 -54 6 -78 -2 -84 -26 -4 -14 -11 -25 -17 -25 -6
0 -7 6 -4 13 4 6 -3 1 -15 -13 -19 -21 -21 -22 -16 -5 5 17 4 18 -6 5 -7 -8
-19 -15 -25 -16 -30 -2 -34 -5 -28 -14 3 -5 -1 -10 -9 -10 -9 0 -16 -4 -16
-10 0 -5 -13 -10 -30 -10 -21 0 -30 -5 -30 -16 0 -8 -4 -13 -8 -10 -5 3 -18
-3 -29 -14 -12 -10 -24 -16 -27 -13 -3 4 -6 1 -6 -6 0 -8 -7 -11 -15 -7 -8 3
-21 -2 -30 -10 -8 -9 -15 -13 -15 -9 0 4 -7 -1 -16 -9 -8 -9 -20 -14 -25 -11
-5 4 -9 1 -9 -4 0 -6 -3 -10 -7 -9 -5 1 -24 -4 -43 -11 -19 -8 -38 -13 -42
-12 -5 0 -8 -4 -8 -9 0 -5 -3 -9 -7 -8 -5 1 -21 -4 -36 -10 -16 -7 -34 -12
-41 -12 -6 0 -16 -4 -21 -9 -6 -4 -44 -21 -85 -37 -41 -15 -80 -32 -87 -37 -7
-5 -17 -6 -24 -2 -6 4 -14 3 -18 -2 -6 -10 -143 -51 -298 -89 -59 -15 -75 -16
-85 -6 -20 20 -12 163 18 303 69 329 223 576 458 733 237 158 625 299 911 330
103 11 342 -4 465 -29z m167 -41 c-3 -3 -12 -4 -19 -1 -8 3 -5 6 6 6 11 1 17
-2 13 -5z m-150 -136 c-3 -7 -5 -2 -5 12 0 14 2 19 5 13 2 -7 2 -19 0 -25z
m-77 -228 c-8 -5 -19 -10 -25 -10 -5 0 -3 5 5 10 8 5 20 10 25 10 6 0 3 -5 -5
-10z m-90 -214 c0 -2 -7 -7 -16 -10 -8 -3 -12 -2 -9 4 6 10 25 14 25 6z m371
-378 c0 -10 2 -10 6 0 2 6 9 12 15 12 6 0 8 -7 4 -15 -6 -18 19 -21 30 -3 5 7
11 5 21 -7 13 -18 13 -18 13 1 0 15 2 16 9 5 5 -8 15 -11 23 -8 12 4 13 -1 4
-28 -6 -19 -15 -31 -21 -28 -5 3 -4 0 2 -7 10 -11 9 -17 -4 -32 -20 -23 -2
-48 35 -48 17 0 23 -3 16 -10 -6 -6 -21 -6 -40 -1 -30 8 -31 8 -20 -14 6 -13
14 -21 18 -19 5 3 8 -2 8 -12 0 -11 -6 -15 -19 -11 -14 3 -17 0 -14 -14 4 -13
-2 -22 -18 -28 -13 -5 -27 -7 -31 -4 -5 2 -8 0 -8 -6 0 -5 -16 -15 -35 -21
-46 -15 -105 -71 -105 -99 0 -26 39 -121 49 -121 4 0 15 -18 25 -40 15 -36 20
-39 34 -28 13 11 15 10 9 -5 -6 -15 -3 -17 14 -12 18 6 20 4 14 -15 -5 -16 -4
-20 4 -15 8 4 10 -3 6 -26 -3 -19 -8 -35 -10 -38 -3 -2 0 -10 6 -18 9 -10 7
-13 -7 -14 -18 0 -18 -1 1 -8 12 -5 23 -4 27 2 3 6 11 -9 18 -32 6 -23 14 -49
17 -58 5 -12 3 -14 -7 -8 -9 5 -11 4 -6 -3 4 -6 2 -21 -4 -32 -8 -15 -8 -20 1
-20 8 0 8 -4 -1 -15 -11 -13 -10 -14 2 -10 9 4 15 0 15 -10 0 -8 -4 -15 -9
-15 -5 0 -6 -5 -2 -11 4 -8 0 -9 -15 -4 -13 4 -21 2 -21 -5 0 -6 5 -8 12 -4 7
5 9 0 6 -14 -4 -14 -1 -22 11 -25 9 -3 4 -5 -10 -6 -26 -1 -45 -24 -34 -41 3
-5 13 -6 22 -3 15 6 16 5 3 -9 -11 -11 -19 -13 -28 -6 -9 8 -11 7 -6 -6 3 -9
1 -16 -5 -16 -19 0 -12 -20 16 -46 l28 -26 -28 7 c-17 5 -27 3 -27 -4 0 -6 0
-14 0 -18 0 -5 4 -8 9 -8 5 0 13 -4 18 -9 5 -5 -2 -7 -15 -3 -15 3 -25 0 -28
-8 -3 -8 -13 -11 -22 -7 -16 5 -16 4 0 -11 33 -34 5 -59 -47 -42 -11 3 -7 -1
8 -10 27 -15 28 -18 13 -34 -9 -10 -13 -21 -9 -25 4 -4 -2 -9 -13 -12 -11 -3
-25 -15 -30 -27 -6 -12 -9 -16 -7 -9 4 18 -21 15 -46 -5 -15 -13 -18 -22 -11
-33 8 -13 10 -13 10 2 0 9 4 19 8 22 7 4 8 -4 3 -46 -1 -4 -11 -5 -23 -3 -15
3 -18 1 -11 -6 14 -14 5 -47 -16 -52 -10 -3 -8 -5 7 -6 20 -1 21 -3 10 -14
-17 -17 -48 -18 -41 -1 3 8 -2 11 -14 9 -10 -2 -20 -4 -22 -4 -3 -1 0 -6 7
-13 7 -7 12 -17 12 -23 0 -5 -4 -4 -8 3 -5 7 -16 10 -25 6 -14 -5 -12 -10 11
-31 15 -14 20 -20 11 -14 -9 6 -20 7 -24 3 -5 -4 -5 -1 -1 5 12 21 -71 3 -112
-23 -2 -1 1 -12 8 -23 7 -14 7 -21 0 -21 -5 0 -10 7 -10 15 0 27 -20 15 -21
-12 l-1 -28 -12 28 c-12 28 -30 28 -19 0 3 -8 0 -19 -8 -24 -12 -7 -12 -9 0
-9 11 0 10 -4 -5 -16 -10 -8 -13 -12 -5 -8 10 5 12 3 6 -6 -6 -10 -12 -7 -26
11 -17 22 -19 23 -19 4 -1 -27 -21 -50 -45 -51 -11 -1 -29 -5 -40 -10 -18 -7
-19 -6 -6 9 12 15 12 17 -3 11 -9 -3 -16 -13 -16 -22 0 -8 -3 -12 -7 -9 -3 4
-13 2 -20 -5 -11 -9 -17 -9 -25 3 -7 11 -9 9 -5 -7 4 -17 1 -20 -15 -16 -11 3
-24 -1 -29 -9 -8 -12 -11 -12 -19 1 -7 11 -10 12 -10 2 0 -7 -8 -21 -17 -30
-15 -16 -16 -15 -9 12 6 25 5 28 -7 17 -10 -8 -17 -9 -22 -1 -3 5 -14 10 -23
10 -14 -1 -13 -4 6 -19 29 -25 28 -35 -4 -27 -16 4 -23 3 -20 -3 4 -5 1 -13
-5 -17 -7 -4 -9 -3 -6 3 4 6 -4 13 -18 15 -27 6 -32 -1 -13 -20 9 -9 8 -12 -4
-12 -8 0 -21 7 -28 15 -18 22 -33 18 -27 -7 l6 -23 -19 23 c-19 22 -40 29 -40
13 0 -5 6 -12 13 -14 6 -3 -7 -4 -31 -3 -32 2 -41 -1 -38 -11 3 -7 -1 -13 -9
-13 -8 0 -15 5 -15 10 0 12 -22 9 -32 -4 -4 -6 -13 -4 -23 4 -13 11 -21 11
-36 2 -15 -10 -20 -8 -29 8 -12 23 -45 28 -37 6 4 -9 -10 -5 -39 11 -24 14
-44 29 -44 34 0 4 -7 6 -16 2 -13 -5 -13 -7 -2 -14 10 -6 10 -9 1 -9 -7 0 -18
9 -25 20 -7 11 -21 20 -30 20 -9 0 -29 11 -43 25 -14 14 -25 23 -25 20 0 -3
-9 -1 -20 5 -11 6 -18 15 -15 20 3 6 -1 7 -9 4 -11 -4 -16 0 -16 10 0 9 -4 16
-10 16 -5 0 -10 7 -10 16 0 10 -6 14 -15 10 -8 -3 -15 -2 -15 2 0 6 -10 20
-70 89 -22 26 -141 236 -144 255 -1 7 -5 18 -9 24 -8 14 -57 155 -85 244 -18
59 -36 145 -60 289 -5 29 -10 97 -11 150 -3 164 25 197 178 208 67 6 74 4 68
-11 -6 -15 -4 -15 22 -2 34 18 132 34 221 37 36 1 81 6 100 10 93 20 194 14
228 -13 38 -32 -12 -65 -109 -73 -41 -4 -80 -8 -86 -10 -7 -3 -13 0 -13 6 0 6
-4 8 -9 5 -5 -3 -26 -8 -47 -11 -77 -11 -198 -37 -237 -51 -22 -8 -51 -14 -65
-14 l-26 0 22 -16 c36 -25 84 -28 179 -10 48 9 159 22 245 30 169 14 202 25
214 72 4 14 2 36 -4 49 -12 26 -86 68 -139 79 -29 7 -31 10 -21 26 7 11 14 17
16 15 2 -2 34 7 71 21 36 14 73 27 81 29 8 2 17 4 20 6 3 1 10 3 15 4 14 3 64
23 100 40 26 12 150 51 188 59 7 2 19 6 27 9 81 32 308 87 387 92 23 2 50 8
62 14 11 6 27 8 35 5 9 -3 16 -2 16 2 0 13 164 13 172 0 5 -7 8 -4 8 7 0 19
20 24 21 5z m135 -120 c4 -7 4 -10 -1 -6 -4 4 -14 3 -22 -3 -13 -11 -19 2 -6
14 10 11 21 8 29 -5z m-162 -243 c-6 -15 -42 -31 -51 -22 -8 9 21 36 39 37 11
0 15 -5 12 -15z m103 -327 c-3 -8 -6 -5 -6 6 -1 11 2 17 5 13 3 -3 4 -12 1
-19z m-17 -403 c-6 -8 -9 -19 -5 -25 9 -14 -8 -13 -23 2 -10 10 -7 15 10 25
30 16 33 16 18 -2z m25 -25 c3 -5 1 -10 -4 -10 -6 0 -11 5 -11 10 0 6 2 10 4
10 3 0 8 -4 11 -10z m574 -1810 c-5 -52 -7 -105 -4 -117 3 -13 3 -23 1 -23 -3
0 -47 18 -98 41 -51 22 -136 52 -188 66 -83 22 -106 25 -180 18 -130 -11 -143
-11 -147 3 -3 8 5 12 24 12 32 0 109 33 138 59 18 17 27 17 100 6 129 -19 228
0 280 55 l29 30 27 -27 27 -28 -9 -95z m497 -846 c7 3 15 -2 18 -10 4 -10 2
-12 -6 -8 -7 4 -8 3 -4 -4 4 -6 13 -9 21 -5 8 3 15 1 15 -5 0 -6 -6 -13 -12
-15 -8 -3 -6 -6 5 -6 16 -1 21 -12 18 -40 -2 -7 3 -10 9 -6 15 9 42 -15 36
-32 -3 -8 -2 -12 3 -9 4 3 14 -6 21 -20 8 -14 20 -22 27 -20 10 4 12 -1 7 -18
-4 -16 0 -28 13 -37 36 -27 56 -99 27 -99 -8 0 -13 -4 -10 -9 6 -10 -131 -81
-156 -81 -9 0 -21 -7 -28 -15 -6 -8 -15 -14 -18 -13 -4 1 -15 -2 -24 -5 -10
-4 -26 -10 -35 -13 -10 -4 -44 -8 -76 -9 -47 -2 -57 0 -53 12 3 8 2 12 -3 9
-15 -10 -29 17 -29 54 1 19 -3 48 -7 64 -6 22 -5 27 5 21 9 -5 10 -3 3 11 -14
26 -10 104 6 132 7 13 10 26 7 30 -3 3 -6 -1 -6 -8 0 -7 -2 -11 -5 -8 -7 7 5
39 14 35 3 -2 14 4 24 15 9 10 13 18 9 18 -4 0 -9 12 -10 27 -2 26 -2 26 13 7
12 -16 14 -16 9 -1 -4 12 -1 17 13 17 15 0 18 7 17 35 -2 31 0 34 17 24 21
-11 69 13 69 35 0 6 10 -4 22 -22 11 -18 26 -31 34 -28z m184 -214 c0 -5 -4
-10 -10 -10 -5 0 -10 5 -10 10 0 6 5 10 10 10 6 0 10 -4 10 -10z m-10 -618 c0
-10 -21 -32 -30 -32 -4 0 -7 7 -7 15 0 8 4 12 9 9 4 -3 8 0 8 5 0 6 5 11 10
11 6 0 10 -4 10 -8z m23 -40 c-7 -5 -7 -15 -2 -30 7 -19 12 -21 29 -12 13 7
20 7 20 0 0 -5 -5 -10 -12 -10 -6 0 -3 -9 7 -20 10 -12 24 -19 31 -16 7 3 15
-1 18 -9 3 -9 0 -12 -10 -8 -9 3 -14 -1 -14 -12 0 -9 5 -13 10 -10 6 3 10 1
10 -4 0 -6 -8 -12 -17 -12 -16 -1 -17 -2 -1 -6 9 -2 16 -10 14 -16 -1 -7 -1
-8 2 -4 2 4 10 3 18 -4 8 -7 14 -7 14 -1 0 5 -7 12 -15 16 -13 5 -13 8 2 25 9
11 19 18 21 16 3 -3 0 -11 -6 -18 -14 -17 -6 -27 16 -20 13 4 14 3 4 -5 -19
-13 -10 -47 11 -46 10 1 20 -8 23 -22 3 -13 10 -24 16 -24 5 0 6 -10 3 -21 -6
-18 -4 -21 13 -17 15 4 19 2 15 -8 -3 -8 0 -14 6 -14 6 0 11 -7 11 -15 0 -8 9
-19 19 -25 11 -5 20 -18 19 -28 0 -9 5 -51 11 -92 10 -61 71 -552 71 -566 0
-2 -9 1 -19 8 -14 8 -20 24 -21 55 -3 80 -5 93 -14 93 -4 0 -6 7 -2 15 3 8 -1
21 -9 29 -20 20 -19 37 3 30 13 -5 14 -4 3 4 -8 6 -21 8 -29 4 -11 -4 -14 -1
-9 12 4 10 3 15 -3 11 -6 -3 -10 5 -10 19 0 14 -4 26 -10 26 -5 0 -10 -6 -10
-12 0 -7 -6 -1 -14 13 -7 15 -11 38 -9 53 4 18 0 28 -11 32 -11 4 -15 13 -11
25 4 11 2 19 -5 19 -7 0 -10 7 -7 15 4 8 2 17 -4 21 -5 3 -9 13 -8 22 1 10 -4
31 -11 47 -8 17 -14 35 -15 41 0 6 -6 19 -14 28 -7 8 -11 22 -8 31 4 8 0 21
-8 29 -8 8 -15 21 -15 29 0 9 -4 17 -9 19 -4 2 -12 13 -15 26 -6 17 -3 22 11
22 14 0 9 8 -19 33 -38 34 -47 49 -27 45 6 -2 14 3 16 10 3 7 -3 12 -13 12
-14 0 -15 3 -6 12 7 7 12 17 12 23 0 5 -4 3 -10 -5 -5 -8 -12 -12 -15 -8 -3 3
1 13 10 21 21 22 19 28 -10 23 -14 -3 -25 0 -25 5 0 9 22 13 50 9 8 -1 13 0
10 2 -45 34 -44 34 -35 18 4 -8 -2 -5 -14 8 -13 13 -20 30 -17 38 3 7 0 14 -6
14 -7 0 -3 6 8 14 10 8 21 12 24 10 2 -3 -1 -8 -7 -12z m-1133 -212 c0 -5 -2
-10 -4 -10 -3 0 -8 5 -11 10 -3 6 -1 10 4 10 6 0 11 -4 11 -10z m-239 -167
c-12 -20 -14 -14 -5 12 4 9 9 14 11 11 3 -2 0 -13 -6 -23z m2596 1 c-3 -3 -12
-4 -19 -1 -8 3 -5 6 6 6 11 1 17 -2 13 -5z m-710 -76 c-3 -7 -5 -2 -5 12 0 14
2 19 5 13 2 -7 2 -19 0 -25z m-1487 -8 c0 -5 -5 -10 -11 -10 -5 0 -7 5 -4 10
3 6 8 10 11 10 2 0 4 -4 4 -10z m1487 -47 c-3 -10 -5 -4 -5 12 0 17 2 24 5 18
2 -7 2 -21 0 -30z m10 -115 c-3 -8 -6 -5 -6 6 -1 11 2 17 5 13 3 -3 4 -12 1
-19z m819 -100 c12 -13 -44 -58 -63 -51 -12 5 -14 3 -8 -7 6 -10 4 -12 -9 -7
-10 4 -19 1 -22 -8 -4 -8 -19 -15 -34 -15 -15 0 -33 -7 -41 -16 -7 -8 -25 -22
-40 -29 -26 -14 -28 -14 -38 16 -15 44 8 95 51 114 34 16 189 17 204 3z
m-3126 -188 c0 -7 -56 -50 -65 -50 -3 0 -11 -5 -18 -10 -46 -39 -61 -50 -69
-50 -4 0 -26 -11 -47 -24 -45 -29 -111 -44 -111 -26 0 7 8 9 22 5 16 -6 20 -4
15 7 -4 11 16 25 74 52 43 20 80 36 82 34 1 -2 9 3 17 9 58 48 75 60 87 60 7
0 13 -3 13 -7z m3085 -55 c17 -7 24 -14 18 -14 -7 -1 -13 -7 -13 -13 -1 -12
-41 -41 -133 -97 -39 -24 -40 -24 -54 -5 -9 12 -12 30 -9 48 15 76 113 117
191 81z m-2921 -74 c5 -8 -42 -41 -135 -95 -52 -29 -59 -31 -59 -13 0 11 52
50 130 96 38 23 56 26 64 12z m3041 -162 c9 -13 -33 -75 -62 -90 -12 -6 -33
-9 -47 -5 -43 11 -32 67 19 94 26 15 82 15 90 1z m-3925 -9 c0 -5 -5 -10 -11
-10 -5 0 -7 5 -4 10 3 6 8 10 11 10 2 0 4 -4 4 -10z m6136 -510 c8 0 14 4 14
8 0 10 88 8 114 -3 10 -4 21 -4 25 1 7 11 46 12 56 2 4 -4 17 -3 30 2 13 5 25
7 28 4 2 -3 35 -7 73 -10 256 -20 252 -19 344 -47 61 -18 92 -37 96 -58 15
-75 15 -86 -5 -129 -11 -25 -25 -52 -30 -60 -5 -8 -12 -23 -15 -33 -4 -13 -12
-16 -31 -11 -15 4 -25 2 -25 -5 0 -6 -4 -11 -10 -11 -5 0 -10 8 -10 18 0 12
-3 13 -8 5 -6 -9 -15 -6 -36 12 -16 14 -33 22 -38 19 -6 -4 -5 -9 2 -14 8 -5
9 -10 2 -14 -6 -3 -13 3 -17 13 -4 13 -11 18 -22 14 -10 -4 -14 -2 -10 4 4 6
-3 8 -18 5 -14 -2 -25 0 -25 6 0 6 -10 8 -22 4 -20 -5 -21 -3 -10 10 10 13 9
15 -14 10 -16 -3 -30 1 -35 9 -6 9 -9 10 -9 2 0 -8 -9 -9 -31 -3 -17 5 -34 9
-38 8 -3 -1 -19 4 -35 11 -16 6 -31 9 -34 6 -3 -2 -11 0 -19 6 -7 6 -13 8 -13
3 0 -14 -61 -9 -70 6 -7 11 -14 11 -35 2 -25 -11 -25 -11 -14 11 11 21 11 21
-7 5 -16 -14 -21 -14 -32 -2 -16 18 -46 19 -36 2 4 -7 -1 -6 -12 3 -10 9 -25
14 -33 11 -8 -3 -11 0 -7 7 4 6 1 11 -6 12 -33 2 -63 10 -66 19 -2 6 -16 10
-30 11 -15 0 -36 4 -47 8 -17 7 -17 8 8 15 16 4 25 11 21 17 -4 8 -9 7 -14 -1
-4 -6 -23 -11 -41 -9 -44 4 -55 9 -38 20 10 6 7 8 -9 6 -12 0 -22 -5 -22 -10
0 -4 -4 -6 -9 -2 -13 7 -6 39 13 67 14 19 20 18 18 -2 -1 -13 45 -8 68 7 28
19 70 24 70 8 0 -5 4 -4 9 4 7 11 13 12 24 3 10 -9 18 -8 33 2 10 8 21 10 22
5 2 -5 10 -9 18 -9z m-196 -10 c0 -5 -5 -10 -11 -10 -5 0 -7 5 -4 10 3 6 8 10
11 10 2 0 4 -4 4 -10z m-1667 -194 c4 -10 0 -12 -14 -9 -10 3 -16 9 -13 14 8
13 21 11 27 -5z m-1773 -97 c0 -5 -4 -9 -8 -9 -5 0 -9 7 -9 15 0 8 4 12 9 9 4
-3 8 -9 8 -15z m4447 -46 c-3 -10 -5 -4 -5 12 0 17 2 24 5 18 2 -7 2 -21 0
-30z m-4377 13 c0 -2 -7 -7 -16 -10 -8 -3 -12 -2 -9 4 6 10 25 14 25 6z m4269
-22 c4 3 13 0 21 -6 12 -8 12 -9 -2 -4 -11 3 -25 -5 -38 -22 -20 -26 -21 -26
-8 -2 7 14 11 32 10 40 -1 10 1 11 4 2 3 -6 9 -10 13 -8z m-2349 -74 c0 -5 -2
-10 -4 -10 -3 0 -8 5 -11 10 -3 6 -1 10 4 10 6 0 11 -4 11 -10z m-3330 -16
c-8 -3 -24 -19 -35 -37 -19 -30 -20 -52 -22 -412 -2 -209 -5 -803 -9 -1320 -3
-517 -6 -1353 -7 -1857 -2 -504 -5 -919 -8 -922 -8 -9 -21 4432 -13 4483 6 36
12 46 38 57 17 7 40 13 51 12 13 0 14 -2 5 -4z m3430 -101 c0 -19 -13 -9 -16
12 -1 8 2 13 7 9 5 -3 9 -12 9 -21z m267 -269 c-3 -3 -12 -4 -19 -1 -8 3 -5 6
6 6 11 1 17 -2 13 -5z m27 -30 c3 -8 2 -12 -4 -9 -6 3 -10 10 -10 16 0 14 7
11 14 -7z m-1344 -54 c0 -5 -5 -10 -11 -10 -5 0 -7 5 -4 10 3 6 8 10 11 10 2
0 4 -4 4 -10z m34 -90 c-6 -6 -10 -2 -11 12 -2 16 1 18 10 9 7 -7 8 -14 1 -21z
m33 -25 c0 -8 -4 -12 -9 -9 -4 3 -8 9 -8 15 0 5 4 9 8 9 5 0 9 -7 9 -15z m43
-19 c0 -11 -19 -15 -25 -6 -3 5 1 10 9 10 9 0 16 -2 16 -4z m-965 -106 c3 -5
1 -10 -4 -10 -6 0 -11 5 -11 10 0 6 2 10 4 10 3 0 8 -4 11 -10z m1108 -34 c4
-10 1 -13 -9 -9 -15 6 -19 23 -5 23 5 0 11 -7 14 -14z m87 -66 c0 -5 -2 -10
-4 -10 -3 0 -8 5 -11 10 -3 6 -1 10 4 10 6 0 11 -4 11 -10z m33 -60 c-6 -7
-23 23 -23 40 0 8 6 4 13 -10 8 -14 12 -27 10 -30z m-680 -234 c4 -10 0 -12
-15 -8 -15 4 -17 7 -6 13 17 11 15 11 21 -5z m-1 -48 c-7 -7 -12 -8 -12 -2 0
14 12 26 19 19 2 -3 -1 -11 -7 -17z m1145 -30 c-2 -7 2 -21 10 -30 11 -12 12
-21 4 -35 -10 -17 -12 -14 -15 20 -1 6 -7 18 -14 25 -13 14 -8 32 9 32 6 0 9
-6 6 -12z m2230 -123 c40 -12 63 -28 107 -76 50 -53 93 -117 84 -123 -2 -1
-36 -12 -76 -25 -216 -67 -497 -261 -772 -533 -308 -303 -511 -564 -497 -637
5 -26 5 -26 -21 6 -42 50 -192 289 -240 383 -41 78 -44 89 -40 144 4 53 1 65
-24 102 -15 23 -28 47 -28 53 0 7 -10 31 -21 53 -16 32 -22 61 -22 123 -1 87
4 135 14 135 3 0 12 21 20 47 7 26 24 58 37 70 16 15 20 23 11 23 -8 1 -2 8
14 16 15 8 27 19 27 24 0 6 7 10 16 10 8 0 13 4 9 9 -9 16 42 60 54 48 8 -8
11 -8 11 1 0 14 -45 27 -61 16 -8 -5 -9 -3 -4 6 5 8 21 10 46 7 22 -3 37 -1
33 4 -3 5 2 9 11 9 9 0 13 5 10 10 -5 8 -11 7 -21 -1 -8 -6 -17 -9 -21 -6 -3
4 10 13 29 21 35 15 74 16 95 3 7 -5 10 1 6 15 -4 20 -3 21 7 5 8 -13 15 -15
30 -7 24 13 33 13 25 0 -3 -5 -1 -10 4 -10 6 0 11 4 11 9 0 9 35 8 161 -3 56
-4 110 -21 163 -52 23 -13 58 -30 79 -40 20 -9 37 -21 37 -28 0 -6 -18 -22
-40 -36 -21 -13 -35 -27 -29 -31 6 -3 -3 -17 -20 -32 -55 -46 -33 -38 53 19
51 34 83 61 80 69 -5 11 20 34 64 59 23 13 12 -6 -20 -36 -29 -27 -26 -26 43
12 198 110 374 175 485 179 17 1 53 -6 81 -14z m-2027 -55 c0 -5 -2 -10 -4
-10 -3 0 -8 5 -11 10 -3 6 -1 10 4 10 6 0 11 -4 11 -10z m-1293 -35 c0 -8 -4
-12 -9 -9 -5 3 -6 10 -3 15 9 13 12 11 12 -6z m3212 -267 c-36 -25 -46 -39
-46 -60 0 -17 6 -28 14 -28 7 0 13 -5 13 -11 0 -6 -8 -8 -19 -4 -11 3 -21 0
-24 -8 -4 -10 2 -13 21 -9 20 4 24 2 19 -10 -4 -12 0 -15 16 -11 12 3 -5 -14
-38 -38 -108 -78 -189 -141 -257 -201 -38 -33 -65 -53 -62 -45 3 10 -6 22 -25
33 -17 10 -31 22 -31 27 0 4 4 6 9 2 15 -8 25 15 12 28 -8 8 -11 8 -11 -1 0
-7 -6 -12 -12 -12 -32 0 -329 -297 -486 -485 l-34 -40 32 47 c51 74 200 241
353 397 203 205 359 333 514 421 84 47 103 51 42 8z m-3134 -118 c3 -5 1 -10
-4 -10 -6 0 -11 5 -11 10 0 6 2 10 4 10 3 0 8 -4 11 -10z m-11 -105 c3 -8 1
-15 -4 -15 -6 0 -10 7 -10 15 0 8 2 15 4 15 2 0 6 -7 10 -15z m90 -691 c3 -8
2 -12 -4 -9 -6 3 -10 10 -10 16 0 14 7 11 14 -7z m-707 -106 c-3 -8 -6 -5 -6
6 -1 11 2 17 5 13 3 -3 4 -12 1 -19z m10 -55 c-3 -10 -5 -4 -5 12 0 17 2 24 5
18 2 -7 2 -21 0 -30z m10 -55 c-3 -7 -5 -2 -5 12 0 14 2 19 5 13 2 -7 2 -19 0
-25z m753 -132 c0 -3 -4 -8 -10 -11 -5 -3 -10 -1 -10 4 0 6 5 11 10 11 6 0 10
-2 10 -4z m25 -66 c3 -5 1 -10 -4 -10 -6 0 -11 5 -11 10 0 6 2 10 4 10 3 0 8
-4 11 -10z m75 -690 c0 -5 -5 -10 -11 -10 -5 0 -7 5 -4 10 3 6 8 10 11 10 2 0
4 -4 4 -10z m4 -222 c-3 -4 -9 -8 -15 -8 -5 0 -9 4 -9 8 0 5 7 9 15 9 8 0 12
-4 9 -9z m-2526 -738 c1 -42 -12 -38 -16 6 -1 19 2 33 6 30 5 -3 9 -19 10 -36z
m2645 -30 c3 -11 1 -18 -4 -14 -5 3 -9 12 -9 20 0 20 7 17 13 -6z m-2646 -112
c-3 -8 -6 -5 -6 6 -1 11 2 17 5 13 3 -3 4 -12 1 -19z m-3689 -153 c-9 -9 -30
14 -23 25 6 9 10 8 17 -4 6 -10 8 -19 6 -21z m-2 -93 c-11 -10 -15 4 -8 28 l7
25 3 -23 c2 -13 1 -26 -2 -30z m3487 -357 c0 -6 -8 -11 -19 -12 -10 -2 -13 0
-6 3 6 3 9 10 6 16 -4 6 -1 9 5 7 7 -3 13 -9 14 -14z m49 -149 c-3 -5 -9 1
-14 13 -4 13 -5 28 -1 34 8 14 23 -33 15 -47z m8 -136 c0 -5 -4 -10 -10 -10
-5 0 -10 5 -10 10 0 6 5 10 10 10 6 0 10 -4 10 -10z"/>
<path d="M8995 16620 c3 -5 8 -10 11 -10 2 0 4 5 4 10 0 6 -5 10 -11 10 -5 0
-7 -4 -4 -10z"/>
<path d="M8980 16589 c0 -5 5 -7 10 -4 6 3 10 8 10 11 0 2 -4 4 -10 4 -5 0
-10 -5 -10 -11z"/>
<path d="M8555 16030 c-3 -5 -1 -10 4 -10 6 0 11 5 11 10 0 6 -2 10 -4 10 -3
0 -8 -4 -11 -10z"/>
<path d="M9330 15750 c0 -5 7 -7 15 -4 8 4 15 8 15 10 0 2 -7 4 -15 4 -8 0
-15 -4 -15 -10z"/>
<path d="M7811 15173 c-45 -22 -75 -88 -69 -152 9 -87 45 -130 136 -160 35
-12 46 -12 67 -1 58 31 83 162 47 244 -17 37 -30 51 -64 66 -53 24 -73 24
-117 3z"/>
<path d="M9300 15030 c-8 -15 -7 -21 8 -29 16 -9 18 -6 14 20 -5 34 -8 36 -22
9z"/>
<path d="M8823 15007 c-6 -6 -13 -25 -17 -42 -12 -51 -55 -114 -81 -121 -14
-3 -25 -12 -25 -20 0 -8 -3 -13 -7 -12 -17 6 -74 -26 -69 -38 3 -7 -2 -15 -10
-18 -13 -5 -13 -9 0 -35 8 -15 13 -31 10 -33 -2 -3 2 -11 11 -18 8 -7 15 -21
15 -32 0 -10 4 -17 9 -14 5 4 7 -4 3 -16 -4 -16 -2 -19 9 -13 11 6 12 5 2 -6
-14 -14 -18 -50 -5 -48 4 1 16 0 27 -1 30 -3 -53 -19 -106 -19 -68 -1 -79 -21
-37 -64 57 -60 106 -76 211 -73 51 2 101 6 112 8 11 3 26 1 33 -5 7 -6 12 -6
11 -1 -3 19 1 34 11 34 13 0 61 47 82 81 9 14 19 47 23 72 7 44 6 47 -14 47
-12 0 -36 -7 -54 -17 -38 -19 -149 -54 -155 -48 -2 2 7 7 22 11 31 7 32 12 9
30 -12 9 -14 16 -7 21 6 5 11 15 12 23 1 32 12 78 32 145 42 135 37 184 -20
218 -22 13 -30 14 -37 4z"/>
<path d="M9255 14930 c-3 -6 1 -7 9 -4 18 7 21 14 7 14 -6 0 -13 -4 -16 -10z"/>
<path d="M9300 14929 c0 -5 5 -7 10 -4 6 3 10 8 10 11 0 2 -4 4 -10 4 -5 0
-10 -5 -10 -11z"/>
<path d="M8702 14115 c4 -4 3 -16 -3 -26 -5 -11 -7 -19 -5 -19 3 0 10 9 16 19
7 15 7 22 -2 27 -7 4 -10 4 -6 -1z"/>
<path d="M10275 12020 c3 -5 8 -10 11 -10 2 0 4 5 4 10 0 6 -5 10 -11 10 -5 0
-7 -4 -4 -10z"/>
<path d="M10745 10920 c3 -5 10 -10 16 -10 5 0 9 5 9 10 0 6 -7 10 -16 10 -8
0 -12 -4 -9 -10z"/>
<path d="M10840 10770 c0 -5 5 -10 11 -10 5 0 7 5 4 10 -3 6 -8 10 -11 10 -2
0 -4 -4 -4 -10z"/>
<path d="M13970 9384 c0 -8 5 -12 10 -9 6 4 8 11 5 16 -9 14 -15 11 -15 -7z"/>
<path d="M14515 7266 c-24 -23 -25 -25 -6 -23 11 0 18 3 16 6 -3 2 3 10 13 17
9 7 14 15 11 19 -4 3 -19 -5 -34 -19z"/>
<path d="M14246 7043 c-6 -14 -5 -15 5 -6 7 7 10 15 7 18 -3 3 -9 -2 -12 -12z"/>
<path d="M14240 6995 c0 -8 -7 -18 -16 -23 -15 -8 -15 -10 0 -15 10 -4 16 -1
16 8 0 8 7 18 16 23 15 8 15 10 0 15 -10 4 -16 1 -16 -8z"/>
<path d="M14260 6950 c-8 -5 -12 -12 -9 -15 4 -3 12 1 19 10 14 17 11 19 -10
5z"/>
<path d="M7102 17190 c-18 -17 -29 -30 -24 -30 5 0 21 14 37 30 37 38 30 38
-13 0z"/>
<path d="M6989 17083 c-13 -16 -12 -17 4 -4 9 7 17 15 17 17 0 8 -8 3 -21 -13z"/>
<path d="M6592 16645 c-17 -37 -14 -45 4 -12 9 16 14 31 11 33 -2 2 -9 -7 -15
-21z"/>
<path d="M6541 16529 c-6 -18 -9 -34 -7 -36 2 -2 9 10 15 28 6 18 9 34 7 36
-2 2 -9 -10 -15 -28z"/>
<path d="M6496 16394 c-4 -14 -5 -28 -3 -31 3 -2 8 8 11 23 4 14 5 28 3 31 -3
2 -8 -8 -11 -23z"/>
<path d="M6472 16295 c0 -16 2 -22 5 -12 2 9 2 23 0 30 -3 6 -5 -1 -5 -18z"/>
<path d="M6778 15968 c-4 -29 -34 -35 -60 -11 -20 18 -20 18 -14 -22 31 -198
45 -638 27 -852 -11 -135 -14 -154 -26 -213 -3 -14 -8 -50 -11 -80 -3 -30 -12
-73 -19 -95 -11 -34 -19 -41 -49 -49 -57 -15 -50 -53 30 -163 21 -30 42 -114
49 -198 3 -38 8 -88 10 -110 2 -22 6 -89 10 -150 3 -60 8 -141 10 -180 3 -38
8 -99 10 -135 7 -94 15 -182 25 -285 18 -180 25 -282 25 -386 0 -89 -3 -110
-18 -127 -38 -42 10 -102 82 -102 l30 0 -19 56 c-46 132 -67 320 -97 839 -24
415 -22 1998 3 2168 8 60 13 111 11 114 -3 3 -7 -6 -9 -19z"/>
<path d="M10560 15930 c0 -5 14 -10 30 -10 17 0 30 5 30 10 0 6 -13 10 -30 10
-16 0 -30 -4 -30 -10z"/>
<path d="M6522 14969 c-1 -53 -4 -145 -7 -205 -4 -89 -3 -100 6 -61 5 26 8
118 6 205 -1 100 -3 122 -5 61z"/>
<path d="M7310 11982 c-8 -9 -14 -20 -12 -24 1 -5 -2 -8 -8 -8 -5 0 -10 -8
-10 -18 0 -10 -5 -23 -12 -30 -9 -9 -9 -12 1 -12 7 0 11 -6 8 -12 -17 -48 -19
-60 -6 -53 9 5 8 1 -2 -11 -11 -12 -14 -26 -9 -39 4 -11 6 -24 4 -30 -13 -50
-14 -66 -2 -59 10 6 11 5 1 -7 -10 -12 -10 -18 0 -29 9 -10 9 -11 -1 -6 -10 6
-12 -2 -8 -36 3 -25 0 -64 -7 -88 -15 -53 -31 -57 -137 -35 -107 23 -109 24
-280 41 -278 29 -477 -10 -510 -100 -11 -32 -1 -55 42 -97 13 -12 17 -19 10
-15 -8 5 -16 -3 -23 -23 -6 -17 -14 -29 -19 -26 -4 2 -6 -7 -4 -20 1 -14 -1
-25 -6 -25 -11 0 -20 -39 -10 -45 9 -5 6 -77 -4 -93 -4 -7 -2 -12 3 -12 6 0
11 -7 11 -15 0 -8 4 -15 9 -15 4 0 7 -12 5 -26 -1 -15 1 -23 5 -18 4 5 18 77
31 159 34 229 41 247 99 278 91 50 280 77 396 56 36 -6 71 -17 78 -23 7 -7 20
-15 30 -19 18 -7 24 -27 7 -27 -5 0 -7 -7 -4 -15 4 -11 13 -13 28 -9 18 6 19
5 8 -9 -8 -9 -23 -19 -34 -23 -11 -3 -17 -12 -14 -19 2 -7 -2 -21 -9 -32 -8
-10 -15 -32 -15 -50 0 -45 -9 -63 -28 -56 -9 3 -6 -3 8 -13 14 -10 28 -18 33
-16 4 1 7 -3 7 -8 0 -6 -7 -10 -15 -10 -19 0 -35 -32 -25 -50 9 -17 -9 -59
-25 -59 -5 0 -11 -7 -13 -15 -2 -9 1 -16 7 -16 6 0 11 5 11 12 0 6 3 9 6 6 3
-4 -2 -18 -11 -31 -9 -14 -15 -34 -14 -44 2 -10 -3 -28 -10 -41 -8 -15 -9 -28
-3 -35 17 -21 11 -48 -10 -41 -10 3 -18 0 -18 -6 0 -6 4 -9 9 -5 13 8 24 -12
14 -27 -10 -17 -15 -37 -17 -70 0 -16 -5 -28 -10 -28 -5 0 -2 -8 5 -17 8 -10
9 -14 2 -10 -6 4 -14 3 -18 -3 -3 -5 -2 -10 4 -10 14 0 7 -27 -14 -50 -16 -18
-14 -25 8 -21 4 1 4 -7 -2 -16 -5 -10 -11 -22 -13 -28 -1 -5 -7 -9 -11 -7 -5
1 -6 -2 -3 -7 13 -21 13 -111 0 -122 -8 -6 -11 -16 -7 -23 10 -14 12 -86 3
-86 -4 0 -6 -13 -5 -30 1 -16 -3 -30 -9 -30 -6 0 -4 -4 4 -9 8 -6 18 -7 22 -5
4 3 3 -7 -2 -21 -13 -34 -12 -44 1 -25 8 12 9 9 5 -12 -5 -20 -1 -33 13 -47
11 -11 16 -23 13 -26 -4 -4 2 -5 13 -2 11 4 85 13 165 22 80 9 185 26 234 37
104 24 273 105 356 171 l56 44 -3 149 c-2 167 -17 362 -39 534 -8 63 -17 138
-20 165 -17 178 -86 527 -124 628 -12 31 -21 59 -20 62 1 4 -18 24 -41 46 -44
42 -75 48 -99 21z m-485 -1452 c3 -5 1 -10 -4 -10 -6 0 -11 5 -11 10 0 6 2 10
4 10 3 0 8 -4 11 -10z"/>
<path d="M9336 11298 c3 -4 9 -8 15 -8 5 0 9 4 9 8 0 5 -7 9 -15 9 -8 0 -12
-4 -9 -9z"/>
<path d="M8838 11193 c6 -2 18 -2 25 0 6 3 1 5 -13 5 -14 0 -19 -2 -12 -5z"/>
<path d="M8913 11193 c20 -2 54 -2 75 0 20 2 3 4 -38 4 -41 0 -58 -2 -37 -4z"/>
<path d="M8341 11114 c-30 -8 -57 -17 -59 -19 -7 -7 -4 -123 3 -146 20 -61
175 -43 175 20 0 10 3 21 7 25 13 12 14 57 3 71 -7 8 -9 19 -6 24 8 12 -32 41
-54 40 -8 0 -40 -7 -69 -15z"/>
<path d="M8192 10946 c-1 -86 2 -158 6 -160 9 -5 9 300 0 309 -3 3 -6 -64 -6
-149z"/>
<path d="M9376 11005 c4 -8 8 -15 10 -15 2 0 4 7 4 15 0 8 -4 15 -10 15 -5 0
-7 -7 -4 -15z"/>
<path d="M9408 10933 c7 -3 16 -2 19 1 4 3 -2 6 -13 5 -11 0 -14 -3 -6 -6z"/>
<path d="M8201 10754 c0 -11 3 -14 6 -6 3 7 2 16 -1 19 -3 4 -6 -2 -5 -13z"/>
<path d="M9031 10741 c-8 -5 -9 -11 -3 -15 5 -3 12 1 16 9 6 17 6 18 -13 6z"/>
<path d="M9570 10716 c0 -9 5 -16 10 -16 6 0 10 4 10 9 0 6 -4 13 -10 16 -5 3
-10 -1 -10 -9z"/>
<path d="M9635 10610 c3 -5 13 -10 21 -10 8 0 12 5 9 10 -3 6 -13 10 -21 10
-8 0 -12 -4 -9 -10z"/>
<path d="M5411 10227 c-6 -35 -11 -148 -11 -250 0 -115 -4 -187 -10 -187 -6 0
-11 76 -13 193 -1 116 -3 56 -5 -154 l-2 -346 31 -7 c17 -3 43 -6 57 -6 l25 0
-6 88 c-8 107 -24 410 -33 595 -3 75 -10 137 -14 137 -4 0 -13 -28 -19 -63z
m-16 -489 c-8 -45 -13 -46 -13 -4 0 20 4 36 9 36 5 0 7 -14 4 -32z"/>
<path d="M9960 10130 c0 -5 5 -10 10 -10 6 0 10 5 10 10 0 6 -4 10 -10 10 -5
0 -10 -4 -10 -10z"/>
<path d="M6214 9720 c3 -14 10 -80 17 -147 7 -68 16 -123 20 -123 5 0 9 5 9
12 0 36 -34 255 -41 268 -7 11 -8 8 -5 -10z"/>
<path d="M12260 9290 c0 -5 5 -10 11 -10 5 0 7 5 4 10 -3 6 -8 10 -11 10 -2 0
-4 -4 -4 -10z"/>
<path d="M10097 9233 c-4 -3 -7 -11 -7 -17 0 -6 5 -5 12 2 6 6 9 14 7 17 -3 3
-9 2 -12 -2z"/>
<path d="M9985 9220 c3 -5 8 -10 11 -10 2 0 4 5 4 10 0 6 -5 10 -11 10 -5 0
-7 -4 -4 -10z"/>
<path d="M9850 9206 c0 -2 7 -9 15 -16 13 -11 14 -10 9 4 -5 14 -24 23 -24 12z"/>
<path d="M12345 9180 c-3 -5 1 -10 10 -10 9 0 13 5 10 10 -3 6 -8 10 -10 10
-2 0 -7 -4 -10 -10z"/>
<path d="M10690 9109 c0 -5 5 -7 10 -4 6 3 10 8 10 11 0 2 -4 4 -10 4 -5 0
-10 -5 -10 -11z"/>
<path d="M11065 8950 c-10 -11 -16 -22 -14 -24 2 -2 12 7 22 20 22 29 17 32
-8 4z"/>
<path d="M11170 8900 c0 -5 5 -10 10 -10 6 0 10 5 10 10 0 6 -4 10 -10 10 -5
0 -10 -4 -10 -10z"/>
<path d="M11164 8869 c-3 -6 -2 -15 3 -20 5 -5 9 -1 9 11 0 23 -2 24 -12 9z"/>
<path d="M12630 8859 c0 -5 5 -7 10 -4 6 3 10 8 10 11 0 2 -4 4 -10 4 -5 0
-10 -5 -10 -11z"/>
<path d="M11358 8763 c7 -3 16 -2 19 1 4 3 -2 6 -13 5 -11 0 -14 -3 -6 -6z"/>
<path d="M12820 8670 c0 -5 5 -10 10 -10 6 0 10 5 10 10 0 6 -4 10 -10 10 -5
0 -10 -4 -10 -10z"/>
<path d="M11600 8560 c0 -5 5 -10 11 -10 5 0 7 5 4 10 -3 6 -8 10 -11 10 -2 0
-4 -4 -4 -10z"/>
<path d="M11719 8463 c-13 -16 -12 -17 4 -4 9 7 17 15 17 17 0 8 -8 3 -21 -13z"/>
<path d="M13035 8440 c3 -5 8 -10 11 -10 2 0 4 5 4 10 0 6 -5 10 -11 10 -5 0
-7 -4 -4 -10z"/>
<path d="M13140 8430 c0 -5 5 -10 10 -10 6 0 10 5 10 10 0 6 -4 10 -10 10 -5
0 -10 -4 -10 -10z"/>
<path d="M11770 8411 c0 -6 4 -13 10 -16 6 -3 7 1 4 9 -7 18 -14 21 -14 7z"/>
<path d="M11170 8230 c8 -5 20 -10 25 -10 6 0 3 5 -5 10 -8 5 -19 10 -25 10
-5 0 -3 -5 5 -10z"/>
<path d="M12126 8086 c10 -8 21 -12 24 -10 5 6 -21 24 -34 24 -6 0 -1 -6 10
-14z"/>
<path d="M12220 8080 c-13 -8 -12 -10 3 -10 9 0 17 5 17 10 0 12 -1 12 -20 0z"/>
<path d="M11270 8006 c0 -17 16 -30 23 -19 3 5 -1 14 -9 21 -12 10 -14 10 -14
-2z"/>
<path d="M12548 7823 c7 -3 16 -2 19 1 4 3 -2 6 -13 5 -11 0 -14 -3 -6 -6z"/>
<path d="M12610 7705 c-7 -9 -8 -15 -2 -15 5 0 12 7 16 15 3 8 4 15 2 15 -2 0
-9 -7 -16 -15z"/>
<path d="M12651 7704 c0 -11 3 -14 6 -6 3 7 2 16 -1 19 -3 4 -6 -2 -5 -13z"/>
<path d="M12688 7693 c7 -3 16 -2 19 1 4 3 -2 6 -13 5 -11 0 -14 -3 -6 -6z"/>
<path d="M11331 7667 c9 -7 18 -19 22 -27 5 -13 6 -13 6 1 1 17 -18 39 -33 39
-6 0 -4 -6 5 -13z"/>
<path d="M11363 7479 c15 -9 16 -13 5 -26 -11 -14 -10 -15 12 -8 14 4 27 9 29
11 7 7 -33 33 -49 33 -11 0 -11 -2 3 -10z"/>
<path d="M11330 7340 c0 -5 5 -10 11 -10 5 0 7 5 4 10 -3 6 -8 10 -11 10 -2 0
-4 -4 -4 -10z"/>
<path d="M11345 7231 c-3 -5 -2 -12 3 -15 5 -3 9 1 9 9 0 17 -3 19 -12 6z"/>
<path d="M11397 7086 c-3 -8 -2 -18 3 -21 13 -8 20 9 11 24 -6 10 -10 9 -14
-3z"/>
<path d="M11417 7053 c-4 -3 -7 -11 -7 -17 0 -6 5 -5 12 2 6 6 9 14 7 17 -3 3
-9 2 -12 -2z"/>
<path d="M11404 7000 c0 -13 4 -16 10 -10 7 7 7 13 0 20 -6 6 -10 3 -10 -10z"/>
<path d="M11385 6880 c-3 -5 -1 -10 4 -10 6 0 11 5 11 10 0 6 -2 10 -4 10 -3
0 -8 -4 -11 -10z"/>
<path d="M11413 6659 c-2 -23 3 -25 10 -4 4 8 3 16 -1 19 -4 3 -9 -4 -9 -15z"/>
<path d="M11450 6658 c0 -4 4 -8 9 -8 6 0 12 4 15 8 3 5 -1 9 -9 9 -8 0 -15
-4 -15 -9z"/>
<path d="M11465 6410 c3 -5 8 -10 11 -10 2 0 4 5 4 10 0 6 -5 10 -11 10 -5 0
-7 -4 -4 -10z"/>
<path d="M11550 6098 c0 -17 2 -18 15 -8 8 7 15 14 15 15 0 2 -7 5 -15 9 -10
4 -15 -1 -15 -16z"/>
<path d="M10912 5955 c0 -45 12 -93 19 -75 3 8 0 35 -7 60 -10 37 -12 40 -12
15z"/>
<path d="M11515 5970 c3 -5 8 -10 11 -10 2 0 4 5 4 10 0 6 -5 10 -11 10 -5 0
-7 -4 -4 -10z"/>
<path d="M11576 5967 c3 -10 9 -15 12 -12 3 3 0 11 -7 18 -10 9 -11 8 -5 -6z"/>
<path d="M10931 5844 c0 -11 3 -14 6 -6 3 7 2 16 -1 19 -3 4 -6 -2 -5 -13z"/>
<path d="M10940 5780 c0 -16 4 -30 8 -30 5 0 7 14 4 30 -2 17 -6 30 -8 30 -2
0 -4 -13 -4 -30z"/>
<path d="M11610 5595 c7 -9 15 -13 17 -11 7 7 -7 26 -19 26 -6 0 -6 -6 2 -15z"/>
<path d="M11640 5153 c0 -6 8 -17 18 -24 16 -13 16 -13 2 6 -8 11 -16 22 -17
24 -2 2 -3 0 -3 -6z"/>
<path d="M11686 4924 c-8 -21 -8 -39 1 -30 8 7 15 46 9 46 -2 0 -7 -7 -10 -16z"/>
<path d="M11685 4849 c-4 -6 -5 -12 -2 -15 2 -3 7 2 10 11 7 17 1 20 -8 4z"/>
<path d="M11711 4733 c-18 -19 -9 -26 14 -9 10 7 14 15 9 18 -5 3 -15 -1 -23
-9z"/>
<path d="M5376 4485 c-3 -8 -1 -15 4 -15 6 0 10 7 10 15 0 8 -2 15 -4 15 -2 0
-6 -7 -10 -15z"/>
<path d="M5470 3910 c0 -5 5 -10 10 -10 6 0 10 5 10 10 0 6 -4 10 -10 10 -5 0
-10 -4 -10 -10z"/>
<path d="M8950 3490 c0 -5 5 -10 10 -10 6 0 10 5 10 10 0 6 -4 10 -10 10 -5 0
-10 -4 -10 -10z"/>
<path d="M8960 3454 c0 -8 5 -12 10 -9 6 3 10 10 10 16 0 5 -4 9 -10 9 -5 0
-10 -7 -10 -16z"/>
<path d="M12205 3461 c-3 -5 -1 -12 5 -16 5 -3 10 1 10 9 0 18 -6 21 -15 7z"/>
<path d="M12210 3189 c-47 -5 -119 -17 -160 -28 -75 -19 -75 -19 -25 -18 28 1
53 7 57 12 5 6 8 4 8 -5 0 -8 -12 -20 -27 -27 -32 -13 -130 -42 -135 -40 -2 1
0 -2 4 -7 5 -6 73 -1 175 14 123 17 213 23 336 23 139 0 170 2 174 14 9 24
-29 52 -86 63 -62 12 -198 11 -321 -1z"/>
<path d="M8990 3110 c0 -5 5 -10 11 -10 5 0 7 5 4 10 -3 6 -8 10 -11 10 -2 0
-4 -4 -4 -10z"/>
<path d="M12750 3090 c6 -11 13 -20 16 -20 2 0 0 9 -6 20 -6 11 -13 20 -16 20
-2 0 0 -9 6 -20z"/>
<path d="M12330 3094 c-153 -17 -232 -33 -224 -45 3 -5 13 -5 24 1 13 7 19 6
24 -5 6 -17 -3 -23 -58 -42 -40 -13 -39 -13 39 -8 44 3 116 10 160 15 44 5
135 9 202 9 67 1 124 5 127 10 10 16 -4 38 -32 51 -27 12 -197 22 -262 14z"/>
<path d="M8995 3030 c-3 -5 1 -10 10 -10 9 0 13 5 10 10 -3 6 -8 10 -10 10 -2
0 -7 -4 -10 -10z"/>
<path d="M12782 3021 c2 -14 9 -26 16 -29 17 -5 15 10 -3 34 -15 18 -15 18
-13 -5z"/>
<path d="M12799 2943 c6 -37 -1 -146 -13 -208 -7 -34 -17 -148 -17 -182 1 -13
-3 -23 -8 -23 -5 0 -8 -8 -7 -17 3 -38 -193 -72 -424 -74 -119 -1 -128 -2 -75
-10 33 -5 64 -11 70 -13 8 -4 -78 -9 -152 -10 -13 0 -23 -6 -23 -13 0 -7 -5
-13 -11 -13 -5 0 -7 5 -4 10 3 6 1 10 -4 10 -14 0 -14 -13 1 -28 9 -9 9 -12 0
-12 -7 0 -12 -7 -12 -15 0 -8 7 -15 16 -15 13 0 14 -3 5 -14 -10 -11 -8 -15 6
-20 10 -3 -9 -3 -42 -1 -51 3 -55 3 -25 -5 46 -13 68 -13 325 -14 232 0 297 9
387 55 67 34 71 51 64 306 -6 222 -8 246 -28 311 -14 46 -37 42 -29 -5z"/>
<path d="M11968 2313 c7 -3 16 -2 19 1 4 3 -2 6 -13 5 -11 0 -14 -3 -6 -6z"/>
</g>
</svg>
